<svg xmlns="http://www.w3.org/2000/svg" width="24" height="24" viewBox="0 0 24 24"><path d="M3 20c.552 0 1 .449 1 1s-.448 1-1 1-1-.449-1-1 .448-1 1-1zm0-2c-1.656 0-3 1.343-3 3s1.344 3 3 3 3-1.343 3-3-1.344-3-3-3zm9 2c.552 0 1 .449 1 1s-.448 1-1 1-1-.449-1-1 .448-1 1-1zm0-2c-1.656 0-3 1.343-3 3s1.344 3 3 3 3-1.343 3-3-1.344-3-3-3zm0-18c-1.656 0-3 1.343-3 3s1.344 3 3 3 3-1.343 3-3-1.344-3-3-3zm9 20c.552 0 1 .449 1 1s-.448 1-1 1-1-.449-1-1 .448-1 1-1zm0-2c-1.656 0-3 1.343-3 3s1.344 3 3 3 3-1.343 3-3-1.344-3-3-3zm-1.577-1.721l-6.423-5.028v-3.352c-.323.066-.658.101-1 .101s-.677-.035-1-.101v3.352l-6.424 5.028c.695.233 1.323.602 1.844 1.093l5.58-4.372 5.579 4.373c.522-.492 1.15-.861 1.844-1.094z"/></svg>