<svg width="24" height="24" xmlns="http://www.w3.org/2000/svg" fill-rule="evenodd" clip-rule="evenodd"><path d="M14.757 20.171c-.791.523-1.738.829-2.757.829-2.76 0-5-2.24-5-5s2.24-5 5-5 5 2.24 5 5c0 1.019-.306 1.966-.829 2.757l2.829 2.829-1.414 1.414-2.829-2.829zm-9.082-1.171c-3.438 0-5.675-2.629-5.675-5.5 0-2.702 1.951-4.945 4.521-5.408.212-3.951 3.473-7.092 7.479-7.092s7.267 3.141 7.479 7.092c2.57.463 4.521 2.706 4.521 5.408 0 2.855-2.218 5.5-5.675 5.5.3-.63.508-1.31.608-2.026 1.726-.214 3.067-1.691 3.067-3.474 0-2.969-2.688-3.766-4.432-3.72.323-3.983-2.115-6.78-5.568-6.78-3.359 0-5.734 2.562-5.567 6.78-1.954-.113-4.433.923-4.433 3.72 0 1.783 1.341 3.26 3.068 3.474.099.716.307 1.396.607 2.026m6.325-6c1.655 0 3 1.345 3 3s-1.345 3-3 3c-1.656 0-3-1.345-3-3s1.344-3 3-3"/></svg>