<svg xmlns="http://www.w3.org/2000/svg" width="24" height="24" viewBox="0 0 24 24"><path d="M16.949 16.132h2.332c-1.092 1.728-3.605 3.638-6.281 3.852v-8.984h3v-2h-3v-1.103c0-2.39 2-2.619 2-4.897 0-1.654-1.346-3-3-3s-3 1.346-3 3c0 2.297 2 2.487 2 4.897v1.103h-3v2h3v9c-2.639-.18-5.133-2.053-6.281-3.868h2.332l-5.051-3.132v5.912l1.269-1.8c2.702 4.503 6.379 4.305 8.731 6.888 2.352-2.583 6.029-2.385 8.731-6.889l1.269 1.8v-5.911l-5.051 3.132zm-5.949-13.132c0-.551.449-1 1-1s1 .449 1 1-.448 1-1 1-1-.449-1-1z"/></svg>