<svg xmlns="http://www.w3.org/2000/svg" width="24" height="24" viewBox="0 0 24 24"><path d="M12 0l-11 6v12.131l11 5.869 11-5.869v-12.066l-11-6.065zm7.91 6.646l-7.905 4.218-7.872-4.294 7.862-4.289 7.915 4.365zm-16.91 1.584l8 4.363v8.607l-8-4.268v-8.702zm10 12.97v-8.6l8-4.269v8.6l-8 4.269zm6.678-5.315c.007.332-.256.605-.588.612-.332.007-.604-.256-.611-.588-.006-.331.256-.605.588-.612.331-.007.605.256.611.588zm-2.71-1.677c-.332.006-.595.28-.588.611.006.332.279.595.611.588s.594-.28.588-.612c-.007-.331-.279-.594-.611-.587zm-2.132-1.095c-.332.007-.595.281-.588.612.006.332.279.594.611.588.332-.007.594-.28.588-.612-.007-.331-.279-.594-.611-.588zm-9.902 2.183c.332.007.594.281.588.612-.007.332-.279.595-.611.588-.332-.006-.595-.28-.588-.612.005-.331.279-.594.611-.588zm1.487-.5c-.006.332.256.605.588.612s.605-.257.611-.588c.007-.332-.256-.605-.588-.611-.332-.008-.604.255-.611.587zm2.132-1.094c-.006.332.256.605.588.612.332.006.605-.256.611-.588.007-.332-.256-.605-.588-.612-.332-.007-.604.256-.611.588zm3.447-5.749c-.331 0-.6.269-.6.6s.269.6.6.6.6-.269.6-.6-.269-.6-.6-.6zm0-2.225c-.331 0-.6.269-.6.6s.269.6.6.6.6-.269.6-.6-.269-.6-.6-.6zm0-2.031c-.331 0-.6.269-.6.6s.269.6.6.6.6-.269.6-.6-.269-.6-.6-.6z"/></svg>