<?xml version="1.0" encoding="UTF-8"?>
<!-- Generator: Adobe Illustrator 26.0.1, SVG Export Plug-In . SVG Version: 6.00 Build 0)  -->
<svg xmlns="http://www.w3.org/2000/svg" xmlns:xlink="http://www.w3.org/1999/xlink" version="1.1" id="Capa_1" x="0px" y="0px" viewBox="0 0 24 24" style="enable-background:new 0 0 24 24;" xml:space="preserve" width="512" height="512">
<g>
	<g>
		<path d="M16.523,22.931c-2.448,0-5.965-3.469-8.692-8.771c-0.258-0.505-0.5-1.01-0.724-1.511c-2.157,4.235-2.51,7.701-1.296,8.51    c0.723,0.459,2.048,0.076,3.624-1.054c0.225-0.161,0.537-0.109,0.698,0.115c0.161,0.225,0.109,0.537-0.115,0.698    c-1.982,1.421-3.625,1.794-4.752,1.08c-2.126-1.417-1.048-6.114,1.342-10.532c-0.397-1.001-0.72-1.978-0.963-2.908    c-1.808,0.367-3.241,0.941-4.042,1.671c-0.384,0.35-0.586,0.713-0.601,1.079c-0.049,0.778,0.704,1.606,2.118,2.342    c0.245,0.128,0.34,0.43,0.212,0.674c-0.127,0.245-0.429,0.34-0.674,0.213c-2.289-1.192-2.707-2.442-2.655-3.281    C0.03,10.624,0.341,10.026,0.93,9.49c0.925-0.844,2.506-1.497,4.486-1.905C5.02,5.695,4.988,4.055,5.368,2.897    c0.253-0.771,0.679-1.311,1.265-1.604c0.704-0.365,1.989-0.465,4.077,1.148c0.218,0.169,0.259,0.483,0.09,0.701    c-0.169,0.218-0.483,0.259-0.701,0.09C8.795,2.225,7.725,1.853,7.087,2.184C6.741,2.357,6.485,2.7,6.318,3.209    C5.989,4.211,6.034,5.687,6.399,7.407c0.956-0.149,1.987-0.246,3.068-0.286c3.017-3.843,6.728-6.694,8.877-5.354    c1.123,0.748,1.455,2.278,1,4.554c-0.054,0.271-0.317,0.447-0.588,0.392c-0.271-0.054-0.446-0.317-0.392-0.588    c0.253-1.265,0.361-2.903-0.561-3.518c-1.175-0.733-4.09,0.944-7.04,4.494c0.484,0.003,0.975,0.016,1.473,0.042    c6.817,0.348,11.874,2.651,11.762,5.358c-0.118,1.186-1.191,2.226-3.023,2.959c-0.257,0.102-0.547-0.022-0.65-0.279    c-0.103-0.256,0.022-0.547,0.278-0.65c1.427-0.571,2.323-1.356,2.397-2.101c0.071-1.749-4.352-3.959-10.816-4.289    c-0.754-0.038-1.498-0.048-2.22-0.033c-0.428,0.564-0.853,1.167-1.27,1.807c-0.354,0.543-0.682,1.081-0.982,1.61    c0.299,0.72,0.636,1.45,1.008,2.179c2.967,5.769,6.786,8.903,8.359,8.103c1.532-0.778,1.329-5.388-1.416-11.01    c-0.121-0.248-0.018-0.547,0.23-0.669c0.248-0.12,0.548-0.018,0.669,0.23c2.862,5.863,3.279,11.167,0.97,12.34    C17.223,22.855,16.884,22.931,16.523,22.931z M6.634,8.383c0.169,0.63,0.375,1.285,0.617,1.954    c0.196-0.327,0.398-0.65,0.606-0.969C8.122,8.962,8.398,8.56,8.683,8.164C7.97,8.211,7.283,8.285,6.634,8.383z"/>
	</g>
	<path d="M13.468,11.674c0.161,0.774-0.323,1.548-1.097,1.709c-0.774,0.161-1.516-0.323-1.677-1.097   c-0.161-0.774,0.323-1.548,1.097-1.709C12.533,10.416,13.307,10.9,13.468,11.674L13.468,11.674z"/>
</g>















</svg>
