<svg xmlns="http://www.w3.org/2000/svg" width="24" height="24" viewBox="0 0 24 24"><path d="M12 2c5.514 0 10 4.486 10 10s-4.486 10-10 10-10-4.486-10-10 4.486-10 10-10zm0-2c-6.627 0-12 5.373-12 12s5.373 12 12 12 12-5.373 12-12-5.373-12-12-12zm-4.702 9.905l2.456 6.728c-1.718-.835-2.901-2.595-2.901-4.633 0-.746.161-1.455.445-2.095zm8.177 1.836c0-.637-.229-1.077-.425-1.42-.26-.424-.505-.783-.505-1.208 0-.489.373-.94.932-.909-.916-.839-2.137-1.351-3.477-1.351-1.798 0-3.38.922-4.301 2.319.313.011.745.017 1.703-.059.277-.016.31.392.034.424 0 0-.28.032-.591.049l1.875 5.575 1.127-3.378-.802-2.197-.54-.049c-.278-.017-.244-.44.032-.424 1.106.085 1.635.086 2.728 0 .278-.016.311.392.032.424 0 0-.278.032-.588.049l1.859 5.532.515-1.715c.223-.711.392-1.223.392-1.662zm-3.384.709l-1.545 4.488c.461.135.948.209 1.454.209.6 0 1.175-.104 1.709-.291-.042-.07-1.59-4.329-1.618-4.406zm4.426-2.919c.112.825-.049 1.604-.356 2.373l-1.573 4.545c1.53-.892 2.561-2.55 2.561-4.449-.002-.895-.23-1.736-.632-2.469zm1.483 2.469c0 3.309-2.692 6-6 6s-6-2.691-6-6 2.692-6 6-6 6 2.691 6 6zm-.275 0c0-3.156-2.568-5.725-5.725-5.725s-5.725 2.568-5.725 5.725c0 3.157 2.568 5.726 5.725 5.726s5.725-2.569 5.725-5.726z"/></svg>