<?xml version="1.0" encoding="UTF-8"?>
<svg width="698px" height="183px" viewBox="0 0 698 183" version="1.1" xmlns="http://www.w3.org/2000/svg" xmlns:xlink="http://www.w3.org/1999/xlink">
    <title>logo-secura</title>
    <g id="Page-1" stroke="none" stroke-width="1" fill="none" fill-rule="evenodd">
        <g id="logo-secura" fill-rule="nonzero">
            <g id="Group">
                <path d="M237.2,6.6 C226.7,2.4 215.2,0.9 204.1,0.9 C179.6,0.9 156.5,12.6 156.5,39.5 C156.5,73.5 200.1,69.9 200.1,92.9 C200.1,106.6 188.1,112.8 175.7,112.8 C164.8,112.8 154.3,108.6 144.4,104 L137.8,125.8 C149.3,130 162,133 174.2,133 C202.2,133 226.7,121.7 226.7,90.3 C226.7,54.8 183.1,56.1 183.1,35.6 C183.1,24.7 195.3,21 204.5,21 C213.9,21 223.5,23.8 231.1,27.6 L237.2,6.6 L237.2,6.6 Z M333.4,91.3 C334.9,84.3 335.8,77.4 335.8,70.2 C335.8,46.2 320.4,34.3 297.2,34.3 C266.2,34.3 243.6,62.5 243.6,91.8 C243.6,119.8 261.9,133 289,133 C299.1,133 309.5,130.6 319.1,127.7 L322.2,108.3 C313,112.5 303.4,115.1 293.2,115.1 C276.4,115.1 267,108.7 267,91.3 L333.4,91.3 L333.4,91.3 Z M270.3,74.4 C275.1,61.4 281.6,52.2 296.9,52.2 C307.2,52.2 312.4,57.9 312.4,67.9 C312.4,70.1 312.2,72.1 311.8,74.3 L270.3,74.3 L270.3,74.4 Z M427.1,38 C420.5,36 411.7,34.3 402.6,34.3 C368.8,34.3 347,59.4 347,92.3 C347,116.7 362.7,132.9 387.1,132.9 C395.2,132.9 403.2,132.2 410.7,128.5 L413.5,109.1 C407.1,112.2 399.6,113.9 393.6,113.9 C376.8,113.9 372.7,101.7 372.7,89.4 C372.7,71.7 383.6,53.4 403.3,53.4 C410.1,53.4 416.4,55.1 421.2,58.2 L427.1,38 L427.1,38 Z M530.6,36.5 L506.1,36.5 L495.9,84 C492.8,98.1 486.5,114.1 469.5,114.1 C461.6,114.1 456.2,108.8 456.2,101 C456.2,94 457.7,87.7 459,81.2 L468.2,36.7 L443.7,36.7 L433.8,82.5 C432.5,88.4 430.7,95.8 430.7,103 C430.7,121.7 442.9,133.2 461.5,133.2 C472.1,133.2 481.4,128.1 488.3,121.9 L488.7,121.9 L487,131.1 L511,131.1 C511.4,128.2 512.3,123.2 513.4,117.6 L530.6,36.5 L530.6,36.5 Z M536.4,130.8 L560.9,130.8 L569.7,88.5 C572.8,73.3 581.2,57.7 598.7,57.7 C601.8,57.7 605.3,58.3 608.1,59.2 L613.2,35.2 C610.3,34.5 606.9,34.3 603.8,34.3 C592.5,34.3 580.4,44 575.9,54.2 L575.5,54.2 L578.8,36.5 L555.4,36.5 C554.7,40.9 553.9,45.1 553.2,49.1 L536.4,130.8 L536.4,130.8 Z M664.9,130.8 L685.6,130.8 C687.8,113.1 697.1,76.1 697.1,63.4 C697.1,41.2 679.4,34.3 660.5,34.3 C649.6,34.3 638.9,36.3 628.5,40 L625,59.6 C634.7,55 645.1,52.2 656,52.2 C664.6,52.2 674.8,55 674.8,64.4 C674.8,67.2 674.8,69.9 674.1,72.5 L665.5,72.5 C642.4,72.5 607.7,74.9 607.7,106 C607.7,123.4 619.7,132.9 636.8,132.9 C650.3,132.9 658.8,126.8 667.2,116.3 L667.6,116.3 L664.9,130.8 L664.9,130.8 Z M631.1,105.2 C631.1,89.3 650.9,87.3 662.7,87.3 L671.3,87.3 C667.4,102.5 661.7,115.2 643.4,115.2 C637.2,115.1 631.1,111.8 631.1,105.2 L631.1,105.2 Z" id="Shape" fill="#5A6C83"/>
                <path d="M62,128.2 C62,128.2 7.1,112 0.9,29.1 C0.9,29.1 46,7.6 91.5,35.2 C91.5,35.2 56.9,23.8 21.2,43.3 C21.1,43.2 8.9,81.6 62,128.2" id="Path" fill="#5A6C83"/>
                <path d="M130.9,30.1 C130.9,30.1 144.3,85.7 75.7,132.6 C75.7,132.6 34.4,104.3 35.7,51.1 C35.7,51.1 43.1,86.7 77.9,108 C77.9,108 117.2,99.4 130.9,30.1" id="Path" fill="#1C1C34"/>
                <path d="M11.8,19.5 C11.8,19.5 53.3,-19.9 128.2,16.1 C128.2,16.1 124.2,66 77.6,91.5 C77.6,91.5 104.7,67.3 105.8,26.5 C105.7,26.5 78.7,-3.3 11.8,19.5" id="Path" fill="#EE0939"/>
            </g>
            <g id="Group" transform="translate(138.000000, 161.000000)" fill="#1D1D35">
                <path d="M14.5,15.9 L5,15.9 L2.9,21.2 L0.1,21.2 L8.3,1 L11.2,1 L19.4,21.2 L16.6,21.2 L14.5,15.9 Z M13.6,13.6 L9.8,4 L6,13.6 L13.6,13.6 Z" id="Shape"/>
                <path d="M56.6,15.4 C56.6,18.9 54,21.3 49.3,21.3 L40.8,21.3 L40.8,1.1 L48.8,1.1 C52.6,1.1 55.1,3.1 55.1,6.3 C55.1,8.2 54.3,9.5 52.7,10.3 C55.3,11.2 56.6,12.9 56.6,15.4 Z M43.5,3.5 L43.5,9.4 L48.9,9.4 C51.2,9.4 52.5,8.2 52.5,6.4 C52.5,4.6 51.3,3.5 48.9,3.5 L43.5,3.5 Z M53.9,15.3 C53.9,13.2 52.3,11.7 49.3,11.7 L43.5,11.7 L43.5,18.9 L49.3,18.9 C52.3,18.9 53.9,17.4 53.9,15.3 Z" id="Shape"/>
                <path d="M66.1,13.4 L66.1,1.1 L68.8,1.1 L68.8,13.1 C68.8,17.2 70.9,19.2 74.4,19.2 C77.9,19.2 80,17.2 80,13.1 L80,1.1 L82.7,1.1 L82.7,13.4 C82.7,18.7 79.5,21.6 74.4,21.6 C69.3,21.6 66.1,18.6 66.1,13.4 Z" id="Path"/>
                <path d="M99.8,13.2 L96,13.2 L96,21.3 L93.3,21.3 L93.3,1.1 L101.3,1.1 C105.6,1.1 108.3,3.3 108.3,7.1 C108.3,10.4 106.3,12.5 103,13 L109.2,21.2 L105.9,21.2 L99.8,13.2 Z M96,10.8 L101,10.8 C104.1,10.8 105.6,9.6 105.6,7.2 C105.6,4.8 104.2,3.6 101,3.6 L96,3.6 L96,10.8 Z" id="Shape"/>
                <polygon id="Path" points="121.4 3.5 121.4 9.5 131.3 9.5 131.3 11.9 121.4 11.9 121.4 18.8 132.6 18.8 132.6 21.2 118.8 21.2 118.8 1 132.6 1 132.6 3.4 121.4 3.4"/>
                <path d="M155,15.9 L145.5,15.9 L143.4,21.2 L140.6,21.2 L148.8,1 L151.7,1 L159.9,21.2 L157.1,21.2 L155,15.9 Z M154.1,13.6 L150.3,4 L146.5,13.6 L154.1,13.6 Z" id="Shape"/>
                <path d="M167.9,13.4 L167.9,1.1 L170.6,1.1 L170.6,13.1 C170.6,17.2 172.7,19.2 176.2,19.2 C179.7,19.2 181.8,17.2 181.8,13.1 L181.8,1.1 L184.5,1.1 L184.5,13.4 C184.5,18.7 181.3,21.6 176.2,21.6 C171.1,21.6 167.9,18.6 167.9,13.4 Z" id="Path"/>
                <polygon id="Path" points="224.1 1.1 216.1 21.3 213.2 21.3 205.2 1.1 208 1.1 214.6 18.2 221.2 1.1"/>
                <polygon id="Path" points="235.4 3.5 235.4 9.5 245.3 9.5 245.3 11.9 235.4 11.9 235.4 18.8 246.6 18.8 246.6 21.2 232.8 21.2 232.8 1 246.6 1 246.6 3.4 235.4 3.4"/>
                <path d="M263.1,13.2 L259.3,13.2 L259.3,21.3 L256.6,21.3 L256.6,1.1 L264.6,1.1 C268.9,1.1 271.6,3.3 271.6,7.1 C271.6,10.4 269.6,12.5 266.3,13 L272.5,21.2 L269.2,21.2 L263.1,13.2 Z M259.3,10.8 L264.3,10.8 C267.4,10.8 268.9,9.6 268.9,7.2 C268.9,4.8 267.5,3.6 264.3,3.6 L259.3,3.6 L259.3,10.8 Z" id="Shape"/>
                <polygon id="Path" points="282.1 1.1 284.8 1.1 284.8 21.3 282.1 21.3"/>
                <polygon id="Path" points="310 3.5 303.1 3.5 303.1 21.2 300.4 21.2 300.4 3.5 293.5 3.5 293.5 1.1 310 1.1"/>
                <path d="M328.9,15.9 L319.4,15.9 L317.3,21.2 L314.5,21.2 L322.7,1 L325.6,1 L333.8,21.2 L331,21.2 L328.9,15.9 Z M327.9,13.6 L324.1,4 L320.3,13.6 L327.9,13.6 Z" id="Shape"/>
                <path d="M340.9,19 L342.5,16.9 C344.4,18.5 346.6,19.2 348.7,19.2 C351.6,19.2 353.3,17.8 353.3,15.8 C353.3,14.3 352.3,13.2 350.1,12.7 L345.9,11.7 C342.9,11 341.2,9.1 341.2,6.6 C341.2,3.3 344.1,0.8 348.3,0.8 C351,0.8 353.7,1.8 355.4,3.6 L353.6,5.5 C352.2,4 350.3,3.3 348.2,3.3 C345.4,3.3 343.8,4.7 343.8,6.5 C343.8,7.9 344.8,8.9 347.1,9.5 L351.3,10.5 C354.3,11.2 355.9,13 355.9,15.7 C355.9,19.3 353,21.7 348.5,21.7 C345.8,21.6 343,20.7 340.9,19 Z" id="Path"/>
                <path d="M376.9,11.2 C376.9,5 381.6,0.7 387.3,0.7 C390.9,0.7 394.2,2.4 396.1,5.5 L393.9,6.9 C392.5,4.5 390.1,3.2 387.3,3.2 C383,3.2 379.6,6.3 379.6,11.2 C379.6,16.1 382.9,19.2 387.3,19.2 C390.2,19.2 392.7,17.8 394,15.5 L396.2,16.9 C394.4,19.8 391.1,21.7 387.3,21.7 C381.4,21.6 376.9,17.3 376.9,11.2 Z" id="Path"/>
                <path d="M404.4,11.2 C404.4,5.1 409.1,0.8 414.8,0.8 C420.5,0.8 425.2,5.1 425.2,11.2 C425.2,17.3 420.5,21.6 414.8,21.6 C409.1,21.6 404.4,17.3 404.4,11.2 Z M422.4,11.2 C422.4,6.3 419.1,3.2 414.7,3.2 C410.3,3.2 407,6.3 407,11.2 C407,16.1 410.3,19.2 414.7,19.2 C419.1,19.2 422.4,16.1 422.4,11.2 Z" id="Shape"/>
                <polygon id="Path" points="457.1 1.1 457.1 21.3 454.4 21.3 454.4 5.7 446.9 20.7 444.9 20.7 437.4 5.7 437.4 21.3 434.7 21.3 434.7 1.1 437.8 1.1 445.9 17.3 453.9 1.1"/>
                <path d="M482.8,7.2 C482.8,11.1 480.1,13.3 475.8,13.3 L470.7,13.3 L470.7,21.3 L468,21.3 L468,1.1 L475.8,1.1 C480.2,1.1 482.8,3.3 482.8,7.2 Z M480.1,7.2 C480.1,4.8 478.7,3.5 475.5,3.5 L470.7,3.5 L470.7,10.9 L475.5,10.9 C478.7,10.9 480.1,9.7 480.1,7.2 Z" id="Shape"/>
                <path d="M502.6,15.9 L493.1,15.9 L491,21.2 L488.2,21.2 L496.4,1 L499.3,1 L507.5,21.2 L504.7,21.2 L502.6,15.9 Z M501.7,13.6 L497.9,4 L494.1,13.6 L501.7,13.6 Z" id="Shape"/>
                <polygon id="Path" points="533 1.1 533 21.3 530.2 21.3 518.8 5.2 518.8 21.3 516.1 21.3 516.1 1.1 518.9 1.1 530.3 17.2 530.3 1.1"/>
                <polygon id="Path" points="559.6 1.1 551.8 13.3 551.8 21.2 549.1 21.2 549.1 13.3 541.3 1.1 544.3 1.1 550.4 10.8 556.5 1.1"/>
            </g>
        </g>
    </g>
</svg>