<?xml version="1.0" encoding="UTF-8"?>
<svg width="341px" height="78px" viewBox="0 0 341 78" version="1.1" xmlns="http://www.w3.org/2000/svg" xmlns:xlink="http://www.w3.org/1999/xlink">
    <!-- Generator: Sketch 56.3 (81716) - https://sketch.com -->
    <title>Logo White</title>
    <desc>Created with Sketch.</desc>
    <g id="Logo-White" stroke="none" stroke-width="1" fill="none" fill-rule="evenodd">
        <g id="logo_secureCodeBox_white" fill="#FFFFFF" fill-rule="nonzero">
            <path d="M220.5,50.6 C220.5,66.2 211.4,76.5 197.4,76.5 C191.4,76.5 186.4,74.2 183,69.9 L183,75.8 L164,75.8 L164,6.3 L182.9,6.3 L182.9,30.8 C186.3,26.6 191.1,24.2 196.9,24.2 C211.1,24.2 220.5,34.7 220.5,50.6 Z M201.4,50.1 C201.4,43.4 197.7,38.8 192.1,38.8 C186.7,38.8 182.9,43.4 182.9,50.1 C182.9,56.8 186.6,61.4 192.1,61.4 C197.7,61.5 201.4,56.9 201.4,50.1 Z" id="Shape"></path>
            <polygon id="Shape" points="303.7 24.8 310.7 38 318.6 24.8 339.2 24.8 323.3 49.6 340.4 75.7 318.7 75.7 310.8 61.3 301.8 75.7 281 75.7 298 49.8 282 24.9 303.7 24.9"></polygon>
            <path d="M272.5,27 L272.5,19.5 C272.5,8.9 263.7,0.4 253.1,0.4 C242.5,0.4 233.7,9 233.7,19.5 L233.7,28.5 C228.6,33.6 225.5,40.7 225.5,48.5 C225.5,64.2 238.2,76.9 253.9,76.9 C269.6,76.9 282.3,64.2 282.3,48.5 C282.4,39.9 278.5,32.2 272.5,27 Z M259.3,59.7 L247.8,59.7 L250.9,49.2 C248.6,48.2 247,45.9 247,43.2 C247,39.6 250,36.6 253.6,36.6 C257.2,36.6 260.2,39.6 260.2,43.2 C260.2,45.9 258.6,48.2 256.3,49.2 L259.3,59.7 Z M265.9,24 C263.4,21.8 259.3,20.1 254,20.1 C248.7,20.1 243.8,21.1 239.6,23.6 L239.6,22.6 C239.6,12.6 243.7,7 253.6,7 C263.5,7 266,13.4 266,23.5 L266,24 L265.9,24 Z" id="Shape"></path>
            <g id="Group" transform="translate(0.000000, 6.000000)">
                <path d="M10.7,5.2 C8.5,5.2 6.9,5.9 6.9,7.8 C6.9,12.6 20.8,10 20.8,19.5 C20.8,24.9 16,27.3 10.8,27.3 C7,27.3 2.9,26 0.3,23.7 L2.3,19.7 C4.6,21.7 8.2,22.9 11.1,22.9 C13.5,22.9 15.4,22.1 15.4,20.1 C15.4,14.7 1.6,17.7 1.7,8.3 C1.7,3 6.3,0.7 11.3,0.7 C14.6,0.7 18.1,1.7 20.4,3.4 L18.3,7.6 C15.9,6.1 13,5.2 10.7,5.2 Z" id="Shape"></path>
                <path d="M49.4,16.1 L29.7,16.1 C30.6,20.1 33.7,22.6 37.8,22.6 C40.7,22.6 43.3,21.5 45.2,19.6 L48.2,22.8 C45.6,25.6 41.9,27.2 37.4,27.2 C29.3,27.3 24,21.9 24,14 C24,6.1 29.5,0.7 37.2,0.7 C46.4,0.7 50.1,6.7 49.4,16.1 Z M44.5,12 C44.3,7.8 41.5,5.2 37.2,5.2 C33.1,5.2 30.1,7.8 29.5,12 L44.5,12 Z" id="Shape"></path>
                <path d="M66.3,5.7 C61.8,5.7 58.5,9.1 58.5,14.1 C58.5,19.1 61.7,22.5 66.3,22.5 C69.6,22.5 72.2,21.4 74,19.4 L77.1,22.5 C74.7,25.6 71,27.4 66,27.4 C58.2,27.4 52.8,22 52.8,14.2 C52.8,6.3 58.2,0.9 66,0.9 C70.7,0.9 74.4,2.4 76.8,5.2 L73.7,8.8 C71.9,6.8 69.4,5.6 66.3,5.7 Z" id="Shape"></path>
                <path d="M106.8,0.9 L106.8,27.1 L101.1,27.1 L101.1,22 C99.3,25.6 96,27.3 91.8,27.3 C85.8,27.3 82.2,23.5 82.2,17.2 L82.2,0.9 L87.9,0.9 L87.9,15.6 C87.9,19.5 90.2,21.9 94,21.9 C98.5,21.8 101.2,18.3 101.2,13.7 L101.2,0.9 L106.8,0.9 Z" id="Shape"></path>
                <path d="M129.9,0.7 L129.9,6.1 C124.6,5.8 121.3,8.9 120.9,13.4 L120.9,27.1 L115.2,27.1 L115.2,0.9 L120.9,0.9 L120.9,6.1 C122.6,2.6 125.7,0.7 129.9,0.7 Z" id="Shape"></path>
                <path d="M157.5,16.1 L137.7,16.1 C138.6,20.1 141.7,22.6 145.8,22.6 C148.7,22.6 151.3,21.5 153.2,19.6 L156.2,22.8 C153.6,25.6 149.9,27.2 145.4,27.2 C137.3,27.2 132,21.8 132,14 C132,6.1 137.5,0.7 145.2,0.7 C154.5,0.7 158.2,6.7 157.5,16.1 Z M152.6,12 C152.4,7.8 149.6,5.2 145.3,5.2 C141.2,5.2 138.2,7.8 137.6,12 L152.6,12 Z" id="Shape"></path>
                <path d="M54.5,49 C50,49 46.7,52.4 46.7,57.4 C46.7,62.4 49.9,65.8 54.5,65.8 C57.8,65.8 60.4,64.7 62.2,62.7 L65.3,65.8 C62.9,68.9 59.2,70.7 54.2,70.7 C46.4,70.7 41,65.3 41,57.5 C41,49.6 46.4,44.2 54.2,44.2 C58.9,44.2 62.6,45.7 65,48.5 L62,52 C60.2,50.1 57.7,49 54.5,49 Z" id="Shape"></path>
                <path d="M95.1,57.3 C95.1,65.2 89.5,70.6 81.5,70.6 C73.4,70.6 67.8,65.2 67.8,57.3 C67.8,49.4 73.4,44 81.5,44 C89.5,44.1 95.1,49.4 95.1,57.3 Z M73.5,57.4 C73.5,62.5 76.8,65.9 81.5,65.9 C86.2,65.9 89.5,62.5 89.5,57.4 C89.5,52.4 86.2,48.9 81.5,48.9 C76.8,48.9 73.5,52.4 73.5,57.4 Z" id="Shape"></path>
                <path d="M125.9,33.9 L125.9,70.4 L120.2,70.4 L120.2,65.9 C118.3,68.9 115.2,70.6 111,70.6 C103.5,70.6 98.5,65.1 98.5,57.2 C98.5,49.3 103.6,44 110.9,44 C115.1,44 118.3,45.7 120.2,48.8 L120.2,33.9 L125.9,33.9 Z M120.3,57.4 C120.3,52.3 117,48.8 112.3,48.8 C107.6,48.8 104.3,52.4 104.2,57.4 C104.2,62.4 107.5,65.9 112.3,65.9 C117,65.9 120.3,62.4 120.3,57.4 Z" id="Shape"></path>
                <path d="M157.5,59.5 L137.7,59.5 C138.6,63.5 141.7,66 145.8,66 C148.7,66 151.3,64.9 153.2,63 L156.2,66.2 C153.6,69 149.9,70.6 145.4,70.6 C137.3,70.6 132,65.2 132,57.4 C132,49.5 137.5,44.1 145.2,44.1 C154.5,44.1 158.2,50.1 157.5,59.5 Z M152.6,55.4 C152.4,51.2 149.6,48.6 145.3,48.6 C141.2,48.6 138.2,51.2 137.6,55.4 L152.6,55.4 Z" id="Shape"></path>
            </g>
        </g>
    </g>
</svg>