<?xml version="1.0" encoding="UTF-8"?>
<svg width="256px" height="256px" viewBox="0 0 256 256" version="1.1" xmlns="http://www.w3.org/2000/svg" xmlns:xlink="http://www.w3.org/1999/xlink">
    <!-- Generator: Sketch 56.3 (81716) - https://sketch.com -->
    <title>Favicon@1x</title>
    <desc>Created with Sketch.</desc>
    <g id="Favicon" stroke="none" stroke-width="1" fill="none" fill-rule="evenodd">
        <path d="M40,8 L217,8 C234.673112,8 249,22.326888 249,40 L249,217 C249,234.673112 234.673112,249 217,249 L40,249 C22.326888,249 8,234.673112 8,217 L8,40 C8,22.326888 22.326888,8 40,8 Z" id="Rectangle" fill="#009EDA"></path>
        <path d="M170.137255,102.937255 L170.137255,86.3196078 C170.137255,62.8333333 150.639216,44 127.152941,44 C103.666667,44 84.1686275,63.054902 84.1686275,86.3196078 L84.1686275,106.260784 C72.8686275,117.560784 66,133.292157 66,150.57451 C66,185.360784 94.1392157,213.5 128.92549,213.5 C163.711765,213.5 191.85098,185.360784 191.85098,150.57451 C192.072549,131.519608 183.431373,114.458824 170.137255,102.937255 Z M140.890196,175.390196 L115.409804,175.390196 L122.278431,152.12549 C117.182353,149.909804 113.637255,144.813725 113.637255,138.831373 C113.637255,130.854902 120.284314,124.207843 128.260784,124.207843 C136.237255,124.207843 142.884314,130.854902 142.884314,138.831373 C142.884314,144.813725 139.339216,149.909804 134.243137,152.12549 L140.890196,175.390196 Z M155.513725,96.2901961 C149.97451,91.4156863 140.890196,87.6490196 129.147059,87.6490196 C117.403922,87.6490196 106.547059,89.8647059 97.2411765,95.4039216 L97.2411765,93.1882353 C97.2411765,71.0313725 106.32549,58.6235294 128.260784,58.6235294 C150.196078,58.6235294 155.735294,72.8039216 155.735294,95.1823529 L155.735294,96.2901961 L155.513725,96.2901961 Z" id="Shape" fill="#FFFFFF" fill-rule="nonzero"></path>
    </g>
</svg>