<?xml version="1.0" encoding="utf-8"?>
<!-- Generator: Adobe Illustrator 24.3.0, SVG Export Plug-In . SVG Version: 6.00 Build 0)  -->
<svg version="1.1" id="Ebene_1" xmlns="http://www.w3.org/2000/svg" xmlns:xlink="http://www.w3.org/1999/xlink" x="0px" y="0px"
	 viewBox="0 0 174.098 67.507" style="enable-background:new 0 0 174.098 67.507;" xml:space="preserve">
<style type="text/css">
	.st0{fill:#FFFFFF;}
</style>
<polygon class="st0" points="19.154,29.007 18.754,29.407 18.754,45.915 19.154,46.315 22.356,46.315 22.757,45.915 22.757,29.407 
	22.356,29.007 "/>
<path class="st0" d="M124.024,46.715c4.903,0,7.705-2.901,8.205-6.103l-0.4-0.4h-3.302l-0.4,0.4
	c-0.801,2.001-2.402,2.401-4.103,2.401c-4.903,0-5.304-4.102-5.304-4.902l0.4-0.4h13.509l0.4-0.4V36.11
	c0-5.703-2.902-10.605-9.406-10.605c-6.504,0-9.406,4.902-9.406,10.605C114.217,42.213,117.519,46.715,124.024,46.715
	 M128.126,34.509h-9.006l-0.4-0.4c0-1.201,0.4-4.902,4.903-4.902s4.903,3.702,4.903,4.902L128.126,34.509z"/>
<path class="st0" d="M140.935,36.01c0-4.502,2.001-6.903,5.704-6.903c3.202,0,4.503,1.601,4.903,3.201l0.4,0.4h3.002l0.4-0.4
	c-0.4-3.702-3.002-6.903-8.706-6.903c-6.104,0-9.706,4.102-9.706,10.605s3.702,10.605,9.706,10.605c5.704,0,8.305-3.201,8.706-6.903
	l-0.4-0.4h-3.002l-0.4,0.4c-0.4,1.601-1.601,3.201-4.903,3.201C143.036,42.913,140.935,40.512,140.935,36.01"/>
<polygon class="st0" points="19.154,21.203 18.754,21.603 18.754,24.905 19.054,25.305 22.356,25.305 22.757,24.905 22.757,21.603 
	22.356,21.203 "/>
<g>
	<path class="st0" d="M37.466,25.305h-4.503l-0.4-0.4v-3.302l-0.4-0.4h-3.302l-0.4,0.4c0,0,0,20.509,0,20.61l0.4,0.4h3.302l0.4-0.4
		V29.407l0.4-0.4h4.503l0.4-0.4v-2.901L37.466,25.305z"/>
</g>
<polygon class="st0" points="83.197,32.508 83.197,29.407 82.796,29.007 79.494,29.007 79.094,29.407 79.094,32.508 79.494,33.009 
	82.796,33.009 "/>
<g>
	<path class="st0" d="M91.602,38.911c0,2.501-2.101,4.102-5.404,4.102c-2.502,0-3.702-0.8-3.702-2.901s1.701-3.302,5.404-3.302
		c2.101,0,3.302,0.4,3.302,0.4l0.4,0.4C91.602,37.611,91.602,38.911,91.602,38.911z M87.7,25.305L87.7,25.305h-4.003l-0.4,0.4v2.901
		l0.4,0.4H87.6c2.802,0,4.003,0.9,4.003,3.702v0.8l-0.4,0.4c0,0-1.701-0.4-3.702-0.4c-5.404,0-9.106,2.101-9.106,6.603
		c0,4.102,2.502,6.603,7.005,6.603c4.103,0,5.804-2.501,5.804-2.501h0.4l0.4,1.701l0.4,0.4h2.902l0.4-0.4V34.309
		C95.805,28.206,93.804,25.305,87.7,25.305"/>
	<polygon class="st0" points="67.786,29.007 64.584,29.007 64.084,29.407 64.084,45.915 64.584,46.315 67.886,46.315 68.287,45.915 
		68.287,29.407 	"/>
</g>
<polygon class="st0" points="68.387,28.607 68.387,25.705 68.787,25.305 75.692,25.305 76.092,25.705 76.092,28.607 75.692,29.007 
	68.887,29.007 "/>
<g>
	<path class="st0" d="M110.415,25.305h-4.503l-0.4-0.4v-3.302l-0.4-0.4h-3.302l-0.4,0.4c0,0,0,20.509,0,20.61l0.4,0.4h3.302l0.4-0.4
		V29.407l0.4-0.4h4.503l0.4-0.4v-2.901L110.415,25.305z"/>
</g>
<path class="st0" d="M50.374,25.505c-6.504,0-9.406,4.902-9.406,10.605c0.101,6.103,3.303,10.605,9.807,10.605
	c4.903,0,7.705-2.901,8.205-6.103l-0.4-0.4h-3.302l-0.4,0.4c-0.801,2.001-2.402,2.401-4.103,2.401c-4.903,0-5.304-4.102-5.304-4.902
	l0.4-0.4H59.38l0.4-0.4V36.11C59.78,30.407,56.878,25.505,50.374,25.505z M54.878,34.509h-9.006l-0.4-0.4
	c0-1.201,0.4-4.902,4.903-4.902s4.903,3.702,4.903,4.902L54.878,34.509z"/>
<polygon class="st0" points="37.466,42.613 33.364,42.613 32.963,43.013 32.963,45.915 33.364,46.315 37.466,46.315 37.867,45.915 
	37.867,43.013 "/>
<polygon class="st0" points="110.415,42.613 106.312,42.613 105.912,43.013 105.912,45.915 106.312,46.315 110.415,46.315 
	110.815,45.915 110.815,43.013 "/>
</svg>
