<svg xmlns="http://www.w3.org/2000/svg" width="24" height="24" viewBox="0 0 24 24"><path d="M15 7.494v-.663h3.813l-6.813-6.831-6.813 6.831h3.813v.664l-9 2.9 4.706 8.927 1.303-3.164c2.232 1.767 3.054 5.18 3.054 7.842h5.845999999999999c.252-2.662.573-5.858 3.083-7.843l1.303 3.164 4.705-8.926-9-2.901zm.821 3.325l-.821.597v-2.674l.821 2.077zm-3.821-7.984l1.986 1.991h-.986v8.404c-.778.847-1.447 1.776-2 2.781v-11.185h-.986l1.986-1.991zm-3 5.91v2.679c-.252-.203-.523-.405-.821-.604l.821-2.075zm-3.946 4.476l-.57 1.387-1.601-3.037 3.264-1.051-.457 1.151c1.833 1.006 4.015 2.656 5.256 4.445-.379.7-.7 1.437-.967 2.206-1.291-3.206-3.43-4.26-4.925-5.101zm13.891 0c-2.543 1.434-5.095 3.04-5.84 8.774h-1.921c.569-4.924 3.075-8.059 7.125-10.324l-.455-1.152 3.263 1.052-1.6 3.037-.572-1.387z"/></svg>