<?xml version='1.0' encoding='utf-8'?>
<svg xmlns="http://www.w3.org/2000/svg" version="1.1" width="600px" height="976px" viewBox="0 0 600 976"> <g id="layer1"> <g style="fill:rgb(0,0,0); fill-opacity:1.0; stroke-linejoin: miter"> <path d="M130.76146,232.80586C129.14726,233.14742,127.43901,233.67976,126.965744,234.06258C125.68791,235.06784,123.04234,238.02939,123.04448,238.40964C123.04784,239.02756,121.055954,239.84653,118.58641,240.24033C114.36014,240.97662,112.60617,241.84186,110.81173,243.99066C109.86733,245.13666,108.16512,246.76215,106.981346,247.57672C101.6777,251.21832,93.695625,260.48355,93.709236,262.9551C93.71131,263.33536,93.52332,263.7167,93.286446,263.86063C93.04957,264.00455,92.63044,265.57547,92.30738,267.33597C91.75269,270.19083,91.42335,270.81058,89.43806,272.8179C87.263374,274.9689,87.21693,275.1592,86.950264,278.53555C85.804695,294.94058,85.9029,304.1613,87.354195,308.76395C87.64381,309.57047,87.74488,310.66312,87.60493,311.1392C87.32392,311.90128,88.016304,316.79337,89.19312,323.34634C89.43781,324.62833,90.06696,326.66885,90.548836,327.85452C91.46418,330.08353,91.73823,336.689,91.04507,340.3054C90.860435,341.30453,90.96523,343.0627,91.25741,344.34445C91.549706,345.6262,92.04513,349.28354,92.300804,352.56186C92.60592,356.17258,93.293785,360.25668,94.06948,363.00925C94.74856,365.47726,95.525475,368.4675,95.72219,369.65475C96.30978,372.78867,97.32595,376.0627,99.0118,380.09372C99.83053,382.03818,100.747215,384.50473,101.085655,385.54855C101.47172,386.59232,102.097206,387.9672,102.575905,388.58255C103.62919,389.95523,103.687904,391.9987,102.74723,393.8102C102.13615,395.04935,102.18571,395.42935,103.05387,397.7061C104.40354,401.121,104.88877,402.9247,105.67252,407.1508C106.50492,411.56668,107.90763,415.97952,110.02647,420.95877C110.94102,423.04507,111.71281,425.08487,111.71488,425.46512C111.71696,425.84537,112.24583,426.93558,112.86924,427.93045C113.49235,428.87772,114.26176,430.4894,114.55216,431.43863C114.89005,432.38736,115.46616,433.42996,115.848,433.71304C116.182594,434.04385,116.51768,434.46988,116.51896,434.70755C116.5203,434.94522,117.1901,435.74954,118.00212,436.45804L119.4829,437.78085L119.07452,441.3005C118.75872,444.3918,118.86114,445.72226,120.03168,451.13437C120.71594,454.55295,121.68561,458.01767,122.07031,458.82346C122.50232,459.58163,122.84125,460.72055,122.844666,461.33847C122.85303,462.85947,124.11029,466.7502,124.87604,467.69662C125.21112,468.12265,125.92853,468.92673,126.50226,469.54147C127.07605,470.15634,127.98572,471.33957,128.51349,472.23972C129.08856,473.09225,130.18805,474.2269,130.99896,474.74533C133.52728,476.395,133.49861,479.81754,130.89119,481.06778C128.09413,482.4141,125.9391,488.12982,126.628555,492.49908L126.92476,494.49384L123.36885,496.12946C119.196785,498.10138,116.54211,499.3993,115.215385,500.1671C112.94097,501.463,108.38897,503.48438,105.87426,504.30627C103.739,504.9834,102.6024,505.75024,100.19169,508.18756C98.584816,509.86017,96.50492,511.96295,95.606476,512.82355C93.76248,514.59235,92.39609,516.7863,91.082184,519.8831C90.56589,521.0744,89.341644,523.17255,88.398834,524.6037C87.40854,526.0352,86.60782,527.3704,86.6091,527.6081C86.61044,527.84576,85.76169,529.08636,84.72274,530.32776C83.68392,531.56934,82.83486,532.7622,82.83645,533.0475C82.83773,533.28516,81.89492,534.7163,80.714745,536.1963C78.30769,539.2992,76.09859,543.8269,75.26204,547.3014C74.61128,549.9668,73.11018,553.5875,72.44704,554.01904C72.21022,554.16296,71.03371,556.30835,69.81148,558.78674C68.58955,561.3127,67.2234,563.55426,66.79688,563.7941C66.322945,564.0345,65.19056,565.5617,64.24909,567.2305C62.130806,570.99725,60.902596,572.3825,58.72242,573.53534C57.20588,574.3516,56.730843,574.4019,55.349556,573.88666C54.301765,573.51215,50.7359,573.34155,44.984863,573.42065L36.239132,573.4687L31.736263,575.7751C26.664303,578.3222,25.673458,579.6586,28.810543,579.6413C29.856197,579.63556,31.188595,579.9134,31.808346,580.24274C34.09637,581.4185,35.57635,582.5986,35.579525,583.169C35.58502,584.1672,37.25488,585.29877,38.72839,585.2907C39.488888,585.28644,41.815735,584.89343,43.90503,584.5017C45.99408,584.0624,49.50879,583.56775,51.741394,583.3179C53.97431,583.1154,56.39637,582.72186,57.10749,582.3853C59.099556,581.61383,62.522346,581.6899,62.85981,582.54364C63.245796,583.5872,63.720284,583.4421,65.65815,581.4351C68.966995,578.0896,70.05214,576.6102,72.30983,572.27234C73.53279,569.9364,75.03969,567.3613,75.6537,566.645C76.22011,565.92896,77.210464,564.49744,77.7751,563.4486C78.38716,562.39954,79.37593,560.68286,79.98811,559.6338C80.55276,558.5851,81.30569,557.2024,81.63473,556.53516C81.96377,555.8679,82.67074,554.77075,83.237206,554.0547C83.80367,553.3386,84.79287,551.71704,85.40402,550.47784C86.01511,549.2387,87.9025,546.70905,89.65097,544.84564C91.447174,543.0296,93.005035,541.0721,93.144745,540.5485C93.28439,540.02484,94.45859,537.4517,95.680084,534.8306C96.90147,532.20966,98.26182,528.9224,98.6345,527.54193C99.94108,523.1142,101.26774,522.3464,108.918205,521.9241C115.047844,521.55774,116.09252,521.3617,120.074715,519.43854C130.88356,514.24567,132.54451,513.76117,134.07307,515.13116C135.21964,516.17065,135.27133,516.9309,134.32857,518.362C133.76314,519.2681,133.76625,519.83856,134.30244,522.2598C135.03267,525.393,136.95981,530.08813,138.06033,531.41296C138.4429,531.8386,138.9713,532.83386,139.3079,533.54504C139.59703,534.2565,140.21886,534.96594,140.5999,535.10645C140.98119,535.29456,141.31676,535.81555,141.31938,536.2909C141.32616,537.52673,139.47612,538.2023,135.3895,538.4149C133.58382,538.51984,132.01686,538.81366,131.92336,539.0994C131.82985,539.3851,130.97615,539.7225,130.02657,539.9179C129.07674,540.06573,127.605606,540.5015,126.75215,540.88654C125.94618,541.2712,124.94966,541.56195,124.521866,541.5643C123.23854,541.57135,120.0171,543.5379,119.73713,544.4902C119.55012,545.06146,118.83979,545.54083,118.03277,545.7352C117.27306,545.88196,116.4204,546.40967,116.18511,546.83875C115.950066,547.3153,114.909355,548.2241,113.961845,548.7997C111.73516,550.14294,106.05401,554.26196,104.06652,555.88904C103.26213,556.55884,101.88981,557.6597,101.03788,558.3298C98.576454,560.1971,92.23996,566.1735,87.32443,571.2391C79.05348,579.84045,79.57222,579.077,79.20998,582.35864C79.02876,583.9758,78.618484,587.1627,78.2505,589.3988C77.560074,593.49036,77.568924,595.10645,78.26991,601.567C78.521194,604.03735,78.43367,605.41626,77.964676,606.5596C77.26137,608.32214,77.198685,614.2167,77.91664,615.11584C78.20369,615.4469,78.541336,616.34814,78.68837,617.1554C78.83516,617.91516,79.22487,619.62415,79.564896,620.95325C80.34213,623.9911,80.46829,629.6467,79.88388,635.73413L79.434906,640.53735L73.97176,641.09033C63.14064,642.2431,59.628555,643.2131,57.882767,645.5518C57.222244,646.45856,55.7577,648.0828,54.622936,649.1822C53.34614,650.3776,52.59193,651.5225,52.595837,652.2354C52.60084,653.1385,52.743908,653.23285,53.169384,652.8028C54.114758,651.84686,55.44691,652.0772,55.453197,653.21796C55.457897,654.07355,55.553234,654.1204,56.168533,653.6419C57.30403,652.6849,62.156387,653.41876,63.11403,654.69684C63.832047,655.596,64.0699,655.6423,65.8257,655.1098C66.82204,654.77155,68.10402,654.5268,68.62685,654.52386C69.149734,654.52106,70.52523,653.9906,71.70986,653.3187C72.84725,652.69446,75.17105,651.73096,76.8793,651.1987C78.54001,650.66675,80.34201,649.89636,80.86276,649.5132C81.95126,648.6516,84.56467,648.4946,85.85196,649.20056C87.13926,649.90643,89.41313,648.5157,90.541855,646.3228C92.23497,643.03375,92.45848,640.46576,93.05325,618.9778C93.16843,613.9862,93.427216,609.1841,93.65988,608.27954C93.84451,607.2805,93.73898,605.37976,93.34854,603.5281C91.492645,594.507,91.47696,591.6551,93.42575,591.6445C93.853546,591.642,94.7551,591.352,95.41843,590.9681C96.12931,590.5838,98.6417,589.33417,100.96464,588.2282C104.28326,586.6414,105.940544,585.4915,108.35131,583.05414C110.05297,581.3337,112.889946,578.6086,114.592705,577.0782C116.342766,575.5,117.76055,574.01855,117.75927,573.7809C117.75793,573.54333,118.89112,572.1588,120.30897,570.6775C122.908035,567.90625,126.25758,563.3247,126.25319,562.51666C126.25185,562.279,126.77138,561.65814,127.43385,561.13165C128.09645,560.60516,128.61513,559.84174,128.61305,559.4615C128.60909,558.7485,129.98439,558.1706,131.83809,558.16046C132.45601,558.15704,134.0749,558.67096,135.40921,559.2817C136.79099,559.892,138.74449,560.73676,139.79253,561.1589C141.07872,561.6746,141.93852,562.43036,142.3715,563.3786C143.43053,565.79706,146.34904,569.2508,149.59654,572.0374C151.31578,573.5014,153.7992,575.62683,155.0885,576.7129C156.42567,577.8463,157.85738,578.88416,158.3337,579.07166C159.76259,579.5867,159.39589,582.0604,157.55183,583.8292C155.84987,585.5023,155.14288,586.59937,151.898,592.939C150.20464,596.1805,149.73643,597.4666,149.97984,598.5109C150.41801,600.40985,149.66331,601.45966,145.59367,604.7618C139.39403,609.69183,137.02975,611.9388,135.37868,614.2294C132.73732,617.9514,132.55037,618.52295,132.52689,622.89606C132.54416,626.03314,132.36057,627.2225,131.7463,627.8913C131.3212,628.36896,130.66354,629.7985,130.33792,631.0837C129.91898,632.7022,129.21231,633.84686,127.98251,634.94684C124.86014,637.6258,124.11319,640.1017,123.779205,648.5167C123.61136,652.558,123.35068,657.02747,123.16812,658.40686C122.988495,660.3092,123.08804,661.1167,123.61423,661.7317C124.42728,662.6304,125.82529,666.18774,127.08511,670.5537C128.53903,675.6317,130.3115,678.1411,136.76305,684.42755C140.10828,687.6889,144.21637,691.37384,145.83972,692.69574C147.46283,693.9703,149.56598,696.09766,150.52393,697.42334C153.39755,701.3527,155.11752,702.9594,159.12503,705.64667C161.22427,707.0611,163.5621,708.66437,164.37357,709.2778C165.13724,709.84393,167.04605,711.212,168.5258,712.34454C170.05304,713.4771,171.62994,714.98944,172.0144,715.74786C172.73492,717.1224,182.33424,725.34015,185.10017,726.9887C186.86461,728.02466,195.45573,734.4419,196.65056,735.62354C197.17625,736.14343,197.74876,736.5206,197.98643,736.5193C198.2241,736.51794,198.74847,736.8004,199.08301,737.1312C199.41754,737.46216,201.422,738.92456,203.47371,740.3395C205.5729,741.7538,208.14932,743.4984,209.19888,744.20544C213.39755,747.0819,232.17093,755.3445,236.21524,756.08276C237.11945,756.268,238.0716,756.5479,238.3103,756.73663C238.59656,756.92523,240.40558,757.4382,242.35701,757.9028C244.30843,758.3674,246.68831,758.9721,247.59328,759.29987C248.49818,759.62775,250.78255,760.138,252.5903,760.41315C254.44592,760.7359,256.58716,761.1518,257.34894,761.3853C259.72943,762.08527,267.05316,762.75793,272.32913,762.729C281.265,762.6798,288.90137,759.6908,288.9298,756.2208C288.91937,754.3196,288.15625,753.8485,284.78098,753.77185C278.12585,753.6659,272.46643,753.1266,271.08472,752.51636C266.89145,750.638,265.70108,750.26434,262.98993,749.9465C259.75574,749.584,257.75446,748.6919,254.89008,746.426C252.45523,744.49054,251.54947,744.0202,249.17085,743.653C245.79274,743.0538,239.93536,741.08954,237.88452,739.81744C234.87985,737.98004,231.77591,735.383,231.77249,734.7651C231.7673,733.8144,228.2228,728.89044,226.74275,727.7104C225.50172,726.76654,224.78804,726.62775,221.22316,726.6474C217.99101,726.66516,216.89671,726.4811,216.1804,725.86707C214.65182,724.4971,211.8135,718.3333,211.4653,715.5308C211.2673,714.106,210.58914,711.7807,209.9636,710.4057C208.42459,707.13434,208.45908,704.7575,209.96854,702.6578C210.629,701.75104,211.52219,699.9399,211.89536,698.6545C213.15463,694.2746,217.31834,690.7817,221.2159,690.76025C224.40053,690.7428,226.35316,691.44507,230.36014,694.03735C235.98898,697.6664,237.55939,697.9906,242.49483,696.5375C249.37605,694.5508,250.84853,694.35254,254.4176,695.09344C256.27338,695.46344,257.98712,695.9294,258.22528,696.02313C258.4162,696.16473,260.17358,695.9174,262.0727,695.5267C263.97162,695.0883,267.439,694.64154,269.76727,694.4862C272.14307,694.33057,275.18213,693.7909,276.65308,693.3075C278.07605,692.77686,279.68982,692.3401,280.21265,692.33716C280.68793,692.3346,282.25443,691.9457,283.63046,691.5104C285.9556,690.78455,286.28833,690.78284,288.14594,691.4857C290.62305,692.4702,291.6659,691.94165,292.41278,689.4658C293.81256,684.7048,288.2331,681.40826,276.58014,680.04626C273.15576,679.6848,264.30573,678.0699,260.92633,677.23285C260.02197,677.0003,257.1197,676.49316,254.50311,676.07983C249.60292,675.29877,247.27022,674.64606,240.69678,672.11554C238.60071,671.2714,234.6948,669.77185,232.02731,668.74084C229.31221,667.7101,225.977,666.2549,224.54683,665.5022C222.21071,664.2317,221.87617,663.9009,221.15016,661.5282C220.61818,659.8675,220.42049,658.49005,220.6534,657.63324C221.72523,653.72955,220.86983,645.13104,219.24382,643.3336C218.86119,642.90796,218.33183,641.72253,218.18352,640.6776C217.9879,639.6804,217.31535,638.40076,216.69463,637.88135C216.02605,637.3147,215.44939,636.1771,215.25217,634.8948C215.1033,633.7549,214.23648,631.7156,213.32584,630.3423C212.41519,628.9689,211.69284,627.26154,211.68863,626.50104C211.68393,625.64557,211.29898,624.79205,210.5831,624.27313C209.96262,623.8012,209.10098,622.7127,208.62076,621.8122C207.9968,620.7225,205.896,619.0227,201.26895,616.0535C197.64383,613.74445,194.20901,611.48175,193.54074,610.9626C192.87265,610.4909,191.01344,609.503,189.44069,608.75116C187.82051,607.99945,185.15039,606.493,183.52824,605.40875L180.52281,603.4289L180.83855,600.3376C181.10783,597.4366,182.09215,594.9119,183.64964,592.90704C184.21582,592.1434,184.88104,592.0922,189.44533,592.3048C192.29831,592.47925,195.10367,592.65393,195.67484,592.79346C196.2457,592.8854,197.48825,594.11426,198.49374,595.4397C199.49954,596.8126,200.60007,598.1375,200.9338,598.32587C201.26761,598.5141,201.55539,598.98785,201.55722,599.3205C201.5593,599.70074,201.84659,600.0794,202.22763,600.22003C202.6087,600.3606,202.99207,600.92883,203.08997,601.45105C203.18848,602.0685,207.20099,605.65894,213.69423,610.8993C223.38646,618.7365,224.43602,619.44366,227.53082,620.37726C232.05386,621.731,232.34012,621.9195,232.34879,623.488C232.35507,624.6287,232.11868,624.86774,230.88449,625.1597C228.84267,625.55133,227.13911,626.939,225.91566,629.17975C225.30348,630.2288,224.45576,631.6595,223.93654,632.3278C222.52162,634.332,222.15547,636.9008,223.06721,638.4643C223.49916,639.2225,224.3119,640.07355,224.88387,640.35565C225.40828,640.6379,226.50905,642.0103,227.37221,643.384C230.6824,648.92706,241.37807,657.7094,253.25208,664.67896C254.96869,665.6677,256.4474,666.6102,256.59106,666.79956C256.73444,666.9413,257.44946,667.3176,258.16425,667.6465C258.87885,667.92773,260.69122,669.0586,262.17072,670.1437C264.41388,671.7949,265.176,672.0759,266.98215,672.06604C268.21762,672.0117,270.59686,672.474,272.45422,673.1293C274.45477,673.8788,276.7386,674.29395,278.40216,674.2848C279.8756,674.27673,282.87192,674.593,285.01266,674.91394C287.1537,675.2824,290.81573,675.6425,293.14496,675.6773C297.13815,675.7503,297.4706,675.701,299.12717,674.4085C300.8785,673.06793,300.97354,673.06744,303.68573,673.57544C305.2561,673.89954,307.58588,674.0293,309.10587,673.8308C310.7684,673.6315,312.5751,673.7167,313.9556,674.08936C315.90756,674.6489,316.1924,674.59985,316.61655,673.9321C316.9456,673.2649,317.80045,673.11743,320.8425,673.1008C323.8845,673.0841,325.50204,673.3605,328.74045,674.4834C332.74094,675.8873,332.78848,675.8871,335.68372,675.1106C338.4366,674.3825,338.6743,674.3813,341.91214,675.40924C343.76898,675.9693,345.62665,676.6722,346.00873,677.00275C346.3905,677.2858,348.0113,678.1325,349.58374,678.83685C351.87122,679.91754,353.0609,680.1486,355.48468,680.0878C357.19562,680.03094,358.62103,679.92804,358.71558,679.83234C358.8103,679.78436,358.4264,679.12103,357.85242,678.4587C357.32562,677.74866,356.93964,676.70496,357.03162,676.13403C357.16895,675.1826,357.5008,675.0382,359.30627,674.88574C362.58478,674.6776,362.91626,674.4381,361.5318,673.3524C360.86353,672.83325,360.0056,672.41016,359.57788,672.4126C359.15002,672.4149,358.00665,671.9458,357.0052,671.3334C354.287,669.7323,352.33502,669.17255,347.485,668.8665C345.05988,668.68976,342.96664,668.3686,342.82303,668.17926C342.67917,667.9423,341.91757,667.7564,341.15707,667.76056C339.25583,667.77106,336.82596,666.7387,334.4865,664.85016L332.52902,663.2924L319.1722,663.27075C305.5302,663.25073,301.0129,662.9428,295.53918,661.59454C293.54028,661.1302,289.26038,660.7735,283.55557,660.61456L274.6181,660.3786L274.13342,658.6701C273.60016,656.7718,272.30914,655.4003,268.3967,652.7124C266.96524,651.72217,265.15128,650.30615,264.3393,649.59766C263.09747,648.5112,259.23254,645.82324,256.51434,644.22205C252.50864,641.8673,252.17435,641.584,252.16837,640.4907C252.16287,639.49255,252.44705,639.3009,254.20465,639.10114C255.29736,639.00006,256.864,638.65875,257.62292,638.3693C260.99115,637.1624,262.5578,636.8211,264.60168,636.8099C265.93253,636.80255,266.9767,636.51166,267.35458,636.0817C268.11014,635.1745,269.77374,635.16547,270.96698,636.06195C272.16022,636.95856,276.05774,636.9371,279.28467,635.9687C280.70825,635.533,281.94144,635.05096,282.08298,634.86005C282.22458,634.6691,283.26553,633.8078,284.44888,632.89825C286.43652,631.3187,286.72125,631.22217,289.9063,631.29956C297.7028,631.4944,297.84537,631.4935,300.30936,630.1017C302.63165,628.8531,302.9641,628.80365,307.95593,628.9664C318.60477,629.24054,321.0281,629.0846,324.53812,627.7344C326.43546,627.01086,328.8091,626.475,330.23508,626.46716C331.6135,626.4596,333.03757,626.11914,333.55826,625.73596C334.07907,625.3528,335.07538,625.0145,335.7884,625.0106C336.50137,625.0068,337.9725,624.571,339.11038,624.0417C340.2482,623.51263,341.57675,623.0776,342.0521,623.075C344.09595,623.06366,349.83093,620.08514,352.33755,617.7898C354.79663,615.4947,356.0766,614.8697,359.97043,614.1829C361.205,613.9384,361.8237,614.0776,362.2543,614.5981C362.63693,615.02374,363.25662,615.3531,363.68448,615.35065C364.1122,615.3483,364.96964,615.67645,365.59,616.10077C366.49637,616.7137,367.54288,616.8505,371.05917,616.641C374.81308,616.4303,375.90475,616.13916,379.17603,614.6001C386.7613,610.94586,387.75702,610.51263,391.3626,609.2569C394.63568,608.0506,395.20404,607.6673,396.4769,605.759C397.23093,604.56647,397.889,603.232,397.88657,602.80414C397.88266,602.09125,402.6216,599.4508,403.95242,599.4435C404.33255,599.4414,405.18668,599.1516,405.85,598.7677C406.56082,598.3834,407.93594,597.75793,408.88406,597.32495C409.83243,596.89197,410.77982,596.3164,410.92117,596.0779C411.345,595.36255,413.81744,595.4916,414.48724,596.296C414.82208,596.67444,415.48932,597.0034,416.01215,597.0005C416.4875,596.9979,417.39215,597.2782,417.96466,597.6553C418.53717,598.03235,420.20447,598.68866,421.6327,599.1086C426.58398,600.5549,426.53625,600.5076,426.31116,602.79047C426.17456,603.88446,425.80786,606.3582,425.4381,608.26154C424.83875,611.6396,424.83923,611.7347,426.08875,614.1996C427.38623,616.75916,428.40814,621.07904,428.42548,624.2161C428.43073,625.1667,428.6751,626.4012,428.91547,626.8753C429.20343,627.39655,429.5064,630.6271,429.66803,634.0962C429.78253,637.6128,430.0379,640.84375,430.2309,641.3655C430.81024,642.9784,432.9094,644.3928,434.7634,644.43005C435.71408,644.4249,436.76138,644.7044,437.0486,645.0832C437.38345,645.4617,438.2416,645.9321,439.00284,646.07056C439.7642,646.209,440.81302,646.77356,441.43387,647.29297C442.00674,647.76526,442.76956,648.1887,443.10233,648.1869C443.43497,648.18506,444.10342,648.7042,444.58206,649.3196C446.01776,651.07043,449.92572,652.9502,451.0158,652.3739C451.53705,652.0857,452.62958,651.93713,453.43787,651.9804C454.29395,652.0706,455.43347,651.82684,456.04956,651.49066C456.66565,651.1545,457.70996,650.9111,458.42313,650.9548C459.13638,650.9982,459.89713,651.0417,460.08707,650.9931C460.84708,650.89374,457.3474,645.49445,455.48462,643.841C453.66943,642.2349,449.75983,640.06976,448.66656,640.07587C448.4289,640.0771,447.23834,639.6558,446.1419,639.0915C444.99832,638.575,443.37906,638.01337,442.52286,637.87555L440.9529,637.64655L440.48807,630.8995C439.96878,622.91675,440.09854,620.58704,441.082,617.91974C441.87827,615.7764,441.7275,614.30365,440.4691,610.17523C439.21176,606.2844,439.06223,605.00195,439.72336,604.2378C440.5262,603.2826,442.80798,603.3176,445.14307,604.3981C450.71838,606.9341,452.4309,607.20996,454.65875,606.057C456.12802,605.28845,459.21652,605.0812,459.22018,605.7466C459.22153,605.98425,459.65085,606.2671,460.1744,606.407C461.07883,606.6395,461.12558,606.4967,460.832,604.9773C460.58713,603.64764,460.67917,603.1243,461.29453,602.64557C462.0046,602.11884,461.95627,601.9765,460.76328,601.1275C460.04745,600.6086,458.6152,599.47565,457.65952,598.5302C456.70383,597.6324,454.8919,596.5966,453.60626,596.17596C450.41614,595.1953,442.802,593.5735,439.42477,593.1643L436.57114,592.8473L435.98764,590.4739C435.50186,588.5751,434.92654,587.6752,432.9683,585.97473C431.2963,584.4629,430.57816,583.51624,430.57352,582.66064C430.61368,581.3296,431.36758,580.1371,432.506,579.703C433.35977,579.3656,434.819,576.7908,434.81277,575.65C434.8107,575.2698,435.3798,575.02893,436.4731,575.023C437.47116,575.0175,438.42,574.6795,438.9398,574.1064C439.55405,573.43756,441.02536,573.04913,444.4453,572.6025C446.96252,572.25604,449.1942,571.81586,449.2882,571.6253C449.66504,571.0052,458.43564,566.82166,459.3387,566.81665C459.90915,566.8136,460.6749,567.76,461.63535,569.56104C463.3165,572.73645,466.089,575.5731,470.4782,578.49603C472.19562,579.6274,474.77216,581.41943,476.20367,582.4098C477.6351,583.40015,479.01816,584.24817,479.25583,584.2468C479.49387,584.29297,480.06564,584.57495,480.4481,584.9531C481.4509,585.8032,485.7413,588.06116,486.40677,588.05756C486.8821,588.055,491.64752,590.2629,497.2718,593.0838C499.03525,593.92975,499.9393,594.1148,501.2689,593.8698C503.12076,593.527,503.8367,594.0459,503.8461,595.757C503.84903,596.27997,504.32962,597.22797,504.9512,597.88995C505.57303,598.59955,506.34158,600.0689,506.68082,601.2553C507.02005,602.4417,507.83673,604.0058,508.45856,604.7154C509.08063,605.4725,509.60822,606.32513,509.61005,606.6579C509.61163,606.94305,510.52094,608.0788,511.57208,609.0712C514.34357,611.71783,514.9704,613.33057,514.6115,617.2301C514.29736,620.60675,514.83264,622.83795,516.8519,627.00977C517.3805,628.0525,517.8159,629.4286,517.8187,629.9514C517.8219,630.5217,518.39954,631.8495,519.11804,632.84375C520.65173,635.1169,521.2438,639.0589,520.15497,639.87286C519.7287,640.1604,518.87915,641.2583,518.17163,642.2604C516.66296,644.50275,516.53503,647.1652,517.87463,648.774L518.7842,649.9097L520.0136,648.7623C521.1487,647.7103,521.48096,647.6134,525.42737,647.82935C530.60986,648.08606,531.89734,648.8395,537.8718,654.7959C544.1803,661.0354,546.5403,666.6312,546.58813,675.3295C546.6062,678.6092,544.41296,686.0364,543.0421,687.42236C542.66394,687.8047,542.3815,688.2816,542.38245,688.4717C542.3838,688.70935,540.3994,690.90674,537.98926,693.4392C533.49915,698.07465,530.5625,699.9921,526.95386,700.6774C524.39014,701.2143,523.4436,701.98004,523.452,703.50104C523.4758,707.82635,528.4271,709.2727,534.97363,706.90753C539.67017,705.2181,542.22766,703.54047,546.3407,699.4774C549.7444,696.084,554.27563,690.2601,554.27014,689.2619C554.2688,689.02423,555.3019,686.737,556.5714,684.21075C557.8408,681.6845,559.0613,678.8734,559.34143,677.96875C559.6218,677.0641,560.27466,674.77893,560.83496,672.9696C562.18884,668.49414,563.0647,663.54584,563.60144,657.4112C563.9586,653.2264,564.28455,651.98883,565.2274,650.55756C566.9248,648.0766,568.2696,641.9374,568.2426,637.04175C568.233,635.2831,568.60455,633.7124,569.4975,631.8537C570.3429,629.9953,570.7616,628.32935,570.8456,626.33264C570.88464,624.7637,571.20605,622.718,571.5813,621.81287C572.1914,620.38354,572.1825,618.76746,571.6611,610.40454C571.03217,599.7607,570.59406,597.86176,567.42755,592.5554C565.748,589.66516,563.82245,585.2552,562.51715,581.2697C561.6951,578.75494,559.9705,576.29266,557.6302,574.26166C556.8183,573.5533,555.1419,571.23334,553.8471,569.14905C551.2078,564.64777,546.99945,560.01276,544.5683,558.74274C543.61505,558.27277,542.42206,557.42377,541.8962,556.85614C541.3702,556.28876,539.7945,555.0141,538.36334,554.07117C536.93225,553.1284,534.88104,551.80865,533.83136,551.1015C532.7342,550.3946,531.59015,549.7829,531.2574,549.7847C530.92474,549.78656,529.7818,549.41266,528.63824,548.89606C526.9229,548.14496,522.73285,546.8372,516.4008,545.0182C515.4964,544.7854,511.73944,544.4259,508.07855,544.256C502.4207,544.00183,501.13596,543.77106,499.65744,542.87616C497.46368,541.5573,492.1811,540.35046,484.52267,539.34686C481.24057,538.9371,477.19708,538.3415,475.48383,537.97064C471.4865,537.137,465.77927,536.55054,463.26132,536.7544C462.12106,536.85583,460.6937,536.626,459.78806,536.15576C458.64413,535.59155,456.97946,535.41064,452.6541,535.43445C449.27966,535.5004,446.8545,535.32355,446.71008,534.99176C446.51868,534.75507,445.94775,534.66315,445.47314,534.8083C444.95142,535.0014,443.76184,534.7703,442.85645,534.3475C441.093,533.50165,438.3375,533.75446,437.4404,534.8526C437.15744,535.2343,436.30417,535.66693,435.5444,535.81366C434.7847,535.96045,433.93167,536.4404,433.6011,536.8225C433.3179,537.20435,432.79666,537.49243,432.46402,537.49426C432.13126,537.4961,431.51627,538.0222,431.13943,538.64233C430.47916,539.59656,429.8151,539.8379,427.0122,540.13855C423.7345,540.48926,423.54407,540.44275,422.2539,539.214L420.9159,537.938L420.35144,538.9868C419.83398,539.9879,419.5492,540.03687,416.93353,539.81366L414.12787,539.5915L413.32928,541.30695C412.9069,542.30743,412.1995,543.30963,411.82108,543.6445C410.9694,544.362,408.21317,544.47235,407.78177,543.80927C407.25443,543.00397,406.02017,543.2961,405.788,544.2955C405.36893,545.8664,403.41824,545.5444,403.02884,543.8829C402.88174,543.07574,402.35526,542.413,401.78403,542.27356C400.35605,541.9011,400.67856,540.04565,402.75198,536.7546C405.10843,533.0816,405.1509,532.1783,402.9606,531.47723C402.05588,531.197,401.05405,530.5371,400.81345,530.0156C400.52548,529.49414,399.8104,529.1179,399.0975,529.1218C397.624,529.1299,394.40082,530.7638,393.0302,532.19727C390.57294,534.8251,387.39325,535.7457,386.10138,534.1843C385.76642,533.8059,385.00403,533.47723,384.43372,533.4804C383.86328,533.48346,383.10095,533.1551,382.76624,532.7767C382.4314,532.39825,381.85925,532.06854,381.5265,532.0704C381.14624,532.0726,380.47986,531.88605,380.00317,531.65106C378.9065,531.0391,375.52377,529.58417,372.28427,528.2712C370.8552,527.70856,368.9,526.53107,367.99185,525.63293C367.0364,524.78253,365.93924,524.0755,365.559,524.0776C364.51334,524.0833,361.077,521.5356,358.4482,518.88824C357.25308,517.6589,355.3905,516.05316,354.2931,515.29865C347.37457,510.5359,339.8341,505.016,339.83197,504.6357C339.8307,504.39804,339.258,503.97348,338.54346,503.6921C337.78113,503.36362,336.68396,502.6567,336.01538,502.09006C333.96155,500.29495,330.96002,499.0281,327.10638,498.38382C325.06042,498.0148,320.207,497.09085,316.2572,496.25705C303.6465,493.61703,297.37546,494.22195,293.311,498.47464C291.42075,500.48148,291.0048,502.6227,291.83444,506.5633C292.46835,509.4594,294.57693,512.5849,295.9078,512.5776C297.19113,512.5705,300.6341,516.3066,304.1321,521.421C308.1099,527.3406,308.44577,527.9092,310.51212,531.98566C312.77063,536.4412,313.25513,538.10236,312.45026,538.67706C311.50296,539.30023,308.17313,538.8432,303.98257,537.44025C301.69684,536.69226,299.46082,536.32434,297.32187,536.33606C294.47,536.3518,294.08926,536.2588,293.65604,535.26294C293.07858,533.9828,289.6467,532.2429,286.7449,531.8312C285.55582,531.6952,283.9361,531.03864,283.07706,530.42535C282.07474,529.6703,280.93192,529.2964,279.6486,529.30334C278.4128,529.3102,277.4128,528.9829,276.88712,528.463C276.40884,527.94275,275.64548,527.4241,275.2169,527.28394C274.69302,527.09656,274.35696,526.48047,274.353,525.7676C274.34933,525.10205,274.15634,524.5803,273.87112,524.5819C273.6335,524.5831,271.72128,522.5973,269.71164,520.1842C267.65417,517.7238,264.30557,513.84454,262.29617,511.47894C260.2393,509.1137,258.56393,506.98395,258.5626,506.74628C258.5613,506.5086,257.8909,505.6092,257.03036,504.71088C256.16983,503.81244,253.96933,501.25772,252.15079,499.03372C250.33232,496.80966,248.03673,494.25558,247.12859,493.3574C246.17302,492.45956,244.97539,490.75497,244.494,489.6644C243.3394,487.15158,240.42406,484.26804,237.5643,482.85788C236.37271,482.24655,235.08511,481.493,234.75055,481.16202C234.41626,480.8787,233.65424,480.5978,233.08386,480.60086C232.51349,480.60403,230.98962,480.08963,229.65509,479.43143C228.36835,478.8206,226.93918,478.25803,226.51138,478.26035C226.13113,478.26242,225.60727,478.07516,225.32108,477.8867C223.93587,476.65842,217.36943,475.41104,206.71617,474.3289C200.10542,473.6522,198.06238,473.80612,197.30865,475.0461C196.88483,475.76144,194.22278,475.7286,192.98285,474.97495C192.41089,474.69272,190.50256,473.4199,188.68982,472.24167C186.87714,471.0632,184.92203,469.93314,184.30307,469.7465C183.73166,469.55936,182.68234,468.8998,181.91873,468.33365C181.20236,467.71964,179.43661,466.44595,178.00522,465.45572C172.66127,461.77762,169.46101,458.94315,168.92958,457.3776C168.63966,456.52356,168.06403,455.5759,167.68225,455.29282C167.34772,454.962,167.01135,454.2983,167.00873,453.8231C167.0061,453.34775,166.38031,451.92526,165.56549,450.69394C164.79822,449.46225,164.12494,448.04,164.12207,447.51715C164.10773,444.9029,160.49896,436.93732,157.81834,433.52972C157.2921,432.9146,156.90715,432.06122,156.90453,431.58588C156.89745,430.30255,155.1798,429.1236,152.89702,428.8985C150.61392,428.62585,149.75266,427.58496,149.7388,425.0658C149.73483,424.35278,149.24747,422.16895,148.66641,420.2234C148.13284,418.27734,147.25381,414.0044,146.7604,410.7273C146.11844,406.3578,145.43839,403.6997,144.18637,400.75964C143.22342,398.531,142.4512,396.39624,142.44882,395.96838C142.44125,394.58997,139.657,389.61438,138.07985,388.05457C137.21986,387.25122,135.59804,386.21448,134.45491,385.79297C132.35907,384.99628,131.8786,384.0484,131.95612,380.86322C132.0,380.19745,131.74817,377.63214,131.44946,375.16217C131.19818,372.69183,130.93695,368.41534,130.92181,365.6585C130.90662,362.90167,130.5509,358.72076,130.11035,356.39423C129.66943,354.01996,129.17847,351.17056,129.02936,349.9832C128.43207,345.09048,124.96802,337.50455,122.43761,335.47437C121.626144,334.86108,120.67131,334.10583,120.33708,333.8224C119.47783,333.16162,119.9998,324.36523,121.11308,319.36816C121.6245,317.27393,122.12981,314.08655,122.31029,312.32678C122.53148,309.33105,122.62517,309.09277,123.576584,309.2301C124.528,309.36768,124.6729,309.79456,125.17204,314.1173C125.569016,317.15723,126.29979,320.38538,127.3123,322.99402C128.85631,327.16846,130.09996,328.58752,129.56065,325.59607C127.797226,316.09924,127.86882,311.82092,129.8886,307.43677C130.59288,305.86426,131.29826,304.48193,131.4876,304.33838C131.67693,304.1947,132.4774,302.8119,133.27654,301.1914C134.64008,298.47452,134.9237,298.18777,138.19446,296.55362C140.09076,295.64017,142.60413,294.5806,143.74335,294.2892C145.59444,293.80362,147.20522,292.84402,152.08267,289.48993C154.40305,287.90863,159.45914,282.4621,160.58835,280.3644C162.70523,276.36002,163.72928,272.4092,163.38034,269.46414C162.93399,266.0917,159.66476,259.36014,158.09232,258.6558C156.23392,257.81033,155.46371,256.05606,154.96432,251.6857C154.71414,249.40555,154.17819,247.03177,153.79453,246.41605C152.78836,244.94815,152.81857,241.81068,153.8013,239.00087C154.78433,236.23854,154.20871,235.29115,151.59451,235.30556C150.64389,235.3108,149.64467,235.12608,149.35786,234.84251C149.11897,234.60606,147.35793,234.1881,145.40761,233.91356C143.50452,233.5913,141.22015,233.08104,140.31494,232.7058C138.40924,231.90819,134.84473,231.97533,130.76146,232.80586 Z M124.84569,280.7037C126.12431,288.4919,126.28313,291.43808,125.78825,296.52682C125.202255,302.32898,124.59563,304.37622,123.35979,304.38306C122.88451,304.38562,122.45592,304.24548,122.40709,304.00806C122.40605,303.818,122.24962,301.29956,122.13884,298.4482C122.02782,295.5494,121.57939,291.79672,121.1895,290.04013C120.799545,288.28354,120.45586,286.28903,120.452194,285.62363C120.44853,284.95822,119.916855,283.34506,119.24431,282.0654C117.13016,277.9416,117.97453,275.89316,121.82451,275.87192L124.05852,275.8596L124.84569,280.7037 Z M326.0122,515.50165C328.06097,516.3935,329.4394,516.3859,330.623,515.52374C331.14398,515.1882,332.7102,514.7518,334.1353,514.60126C336.41528,514.3037,336.98645,514.4431,338.79895,515.574C339.9436,516.28064,340.94666,517.1782,341.09167,517.6052C341.23657,518.0322,341.90515,518.5989,342.52466,518.8806C343.5254,519.35046,343.71765,519.72974,343.72784,521.5835C343.73724,523.29456,343.50348,524.0089,342.55756,524.8695C341.89557,525.4911,341.04755,526.8743,340.67358,528.01715C339.7846,530.5888,339.8194,536.91046,340.69244,540.0903C342.87317,547.68353,342.87738,548.44403,340.9286,548.4548C339.4076,548.4631,333.1219,546.40625,332.21442,545.6033C331.9754,545.3668,331.404,545.1798,330.9287,545.1825C330.45337,545.18506,330.07208,544.9971,330.07074,544.7594C330.06946,544.5217,329.6399,544.1913,329.1635,544.0039C328.54456,543.81714,327.92017,542.6323,327.14685,540.3075C326.51843,538.40967,325.6516,536.37036,325.17297,535.75525C324.6942,535.1399,324.30902,534.2389,324.30664,533.81104C324.30402,533.3357,323.9687,532.8623,323.58737,532.6742C323.20633,532.5338,322.87027,531.9177,322.86685,531.2998C322.8632,530.6344,322.52628,529.87573,322.1442,529.54504C321.76212,529.2145,321.42648,528.6935,321.42496,528.4082C321.42337,528.12305,320.74802,526.3205,319.92953,524.42365C318.43616,520.81934,317.2669,515.6448,317.83234,514.7385C318.25647,514.0707,323.72568,514.61115,326.0122,515.50165 Z M364.72354,544.9966C365.91483,545.56055,367.53506,546.31213,368.2499,546.64087C369.01266,547.0169,369.91757,547.3448,370.29782,547.3426C371.39096,547.3366,376.87094,549.82574,384.92676,553.96436C385.40332,554.19934,387.49896,554.9484,389.54645,555.6026C392.78436,556.63043,393.3565,556.96,393.3614,557.8631C393.32465,559.8122,392.2829,560.53094,389.43097,560.5466C385.86615,560.5662,383.11633,561.8646,379.80676,565.0675C378.24634,566.5497,376.87448,567.7455,376.6843,567.7466C376.49423,567.74756,375.50278,568.9889,374.4653,570.468C373.42783,571.99475,371.87082,574.09485,370.92612,575.14575C369.98117,576.1967,369.2264,577.24664,369.22763,577.4843C369.23264,578.3874,367.1509,580.1575,366.10513,580.1633C364.8218,580.1703,359.76053,576.0153,359.707,574.9223C359.70468,574.49457,360.02408,572.06854,360.38998,569.45233C360.84848,566.40765,361.0571,561.1303,361.02,554.3809C360.9559,542.7357,360.76877,543.25964,364.72354,544.9966 Z"/> </g> </g> </svg>