<?xml version="1.0" standalone="no"?>
<!DOCTYPE svg PUBLIC "-//W3C//DTD SVG 20010904//EN"
 "http://www.w3.org/TR/2001/REC-SVG-20010904/DTD/svg10.dtd">
<svg version="1.0" xmlns="http://www.w3.org/2000/svg"
 width="794.000000pt" height="980.000000pt" viewBox="0 0 794.000000 980.000000"
 preserveAspectRatio="xMidYMid meet">
<metadata>
Created by potrace 1.15, written by Peter Selinger 2001-2017
</metadata>
<g transform="translate(0.000000,980.000000) scale(0.100000,-0.100000)"
fill="#000000" stroke="none">
<path d="M3715 9793 c-623 -49 -1118 -179 -1602 -422 -336 -168 -539 -308
-822 -564 -696 -632 -1099 -1447 -1246 -2522 -34 -253 -45 -714 -24 -1030 42
-640 319 -1477 737 -2225 401 -718 879 -1340 1504 -1955 444 -439 814 -724
1173 -906 425 -214 607 -220 1004 -33 280 133 608 361 950 663 139 123 492
473 640 636 932 1022 1596 2235 1820 3325 65 318 86 598 78 1030 -6 295 -19
440 -62 690 -130 746 -392 1358 -819 1910 -104 135 -419 451 -561 564 -621
492 -1377 775 -2240 836 -128 9 -434 11 -530 3z m450 -303 c267 -13 403 -27
565 -56 1048 -191 1877 -760 2377 -1629 213 -370 347 -745 449 -1253 50 -255
64 -425 71 -858 6 -412 1 -500 -43 -759 -117 -680 -414 -1415 -862 -2135 -718
-1152 -1807 -2210 -2535 -2463 -84 -29 -102 -32 -217 -32 -111 1 -134 4 -205
28 -669 233 -1608 1097 -2343 2157 -562 811 -928 1656 -1066 2461 -43 252 -49
353 -43 759 6 403 20 578 62 805 144 777 477 1465 928 1918 295 297 523 469
859 650 325 176 762 310 1229 377 297 42 420 47 774 30z"/>
<path d="M6350 5964 c-483 -88 -863 -255 -1255 -553 -122 -93 -390 -357 -472
-466 -453 -604 -326 -1081 300 -1122 438 -28 1117 236 1559 607 192 160 416
399 506 539 228 355 245 653 49 845 -118 115 -221 147 -482 152 -99 1 -191 0
-205 -2z m385 -286 c55 -18 130 -93 144 -143 30 -111 -11 -252 -124 -419 -339
-507 -1231 -1018 -1775 -1019 -95 0 -125 4 -173 23 -244 93 -222 351 58 687
319 383 1064 822 1497 883 84 12 323 4 373 -12z"/>
<path d="M1166 5929 c-118 -29 -201 -73 -277 -149 -85 -84 -110 -145 -116
-280 -6 -129 26 -251 106 -414 72 -144 153 -249 327 -422 224 -222 421 -373
654 -499 662 -360 1347 -425 1628 -156 99 95 146 244 123 393 -73 481 -661
1072 -1355 1363 -368 154 -841 225 -1090 164z m500 -275 c283 -50 703 -245
1028 -477 612 -435 822 -922 450 -1042 -128 -42 -386 -17 -622 61 -255 83
-590 252 -802 403 -380 271 -601 526 -657 755 -14 57 -15 78 -5 125 24 114 97
174 234 190 91 12 267 4 374 -15z"/>
</g>
</svg>
