<?xml version="1.0" encoding="UTF-8" standalone="no"?>
<!-- Created with Inkscape (http://www.inkscape.org/) -->
<svg
   xmlns:svg="http://www.w3.org/2000/svg"
   xmlns="http://www.w3.org/2000/svg"
   version="1.0"
   width="879"
   height="152"
   viewBox="-0.021 -0.699 879 152"
   id="svg2"
   xml:space="preserve">
	<defs
   id="defs4">
	</defs>
	<g
   id="g6">
		<g
   id="g8">
			<path
   d="M 824.326,66.201 L 845.913,66.201 L 821.138,133.828 C 831.26,131.348 840.337,125.713 847.461,117.9 C 857.407,107.002 863.56,91.914 863.565,75.224 L 863.536,75.224 L 863.536,75.204 L 863.536,75.194 L 863.565,75.194 C 863.565,58.505 857.403,43.412 847.452,32.508 C 837.686,21.805 824.249,15.179 809.464,15.174 L 809.464,15.203 L 809.449,15.203 L 809.439,15.203 L 809.439,15.174 C 794.649,15.174 781.207,21.805 771.436,32.513 C 761.49,43.416 755.332,58.504 755.328,75.184 L 755.357,75.184 L 755.357,75.204 L 755.357,75.228 L 755.328,75.228 C 755.333,83.719 756.939,91.825 759.84,99.188 C 760.743,101.493 761.818,103.788 763.048,106.063 L 763.048,106.083 C 763.834,107.528 764.674,108.935 765.558,110.302 L 781.73,66.337 L 813.366,66.239 L 784.694,145.331 C 783.805,145.038 783.288,144.852 782.448,144.472 C 768.688,138.144 757.204,127.138 749.699,113.3 L 749.684,113.3 C 748.229,110.614 746.901,107.753 745.705,104.716 C 742.155,95.693 740.187,85.722 740.183,75.229 L 740.154,75.229 L 740.154,75.205 L 740.154,75.185 L 740.183,75.185 C 740.188,54.56 747.839,35.859 760.207,22.299 C 772.761,8.544 790.168,0.028 809.44,0.028 L 809.44,0 L 809.45,0 L 809.465,0 L 809.465,0.029 C 828.733,0.034 846.13,8.545 858.679,22.295 C 871.057,35.85 878.708,54.561 878.713,75.195 L 878.742,75.195 L 878.742,75.205 L 878.742,75.225 L 878.713,75.225 C 878.708,95.86 871.057,114.561 858.689,128.116 C 846.467,141.514 829.641,149.932 810.969,150.372 C 804.924,150.509 799.333,149.972 794.216,148.048 L 824.326,66.201 L 824.326,66.201 z "
   style="fill:#003399"
   id="path10" />
		</g>
		<path
   d="M 13.584,113.359 C 13.682,117.109 15.562,124.218 27.91,124.218 C 34.609,124.218 42.056,122.626 42.056,115.507 C 42.056,110.273 36.963,108.866 29.825,107.187 L 22.569,105.498 C 11.641,102.969 1.124,100.547 1.124,85.752 C 1.124,78.272 5.162,65.039 27.091,65.039 C 47.823,65.039 53.39,78.545 53.487,86.787 L 39.902,86.787 C 39.521,83.789 38.398,76.675 26.049,76.675 C 20.683,76.675 14.277,78.643 14.277,84.727 C 14.277,89.971 18.608,91.084 21.43,91.748 L 37.905,95.762 C 47.148,98.018 55.634,101.758 55.634,113.828 C 55.634,134.072 34.887,135.849 28.954,135.849 C 4.243,135.85 0,121.689 0,113.359 L 13.584,113.359 L 13.584,113.359 z "
   style="fill-rule:evenodd"
   id="path12" />
		<polygon
   points="66.543,66.738 80.693,66.738 80.693,134.15 66.543,134.15 66.543,66.738 "
   style="fill-rule:evenodd"
   id="polygon14" />
		<path
   d="M 125.635,97.803 L 153.955,97.803 L 153.955,134.151 L 144.512,134.151 L 143.096,125.587 C 139.507,129.728 134.317,135.841 122.032,135.841 C 105.709,135.841 90.938,124.171 90.938,100.626 C 90.938,82.286 101.192,64.952 124.014,65.04 C 144.766,65.04 152.969,78.458 153.721,87.706 L 139.58,87.706 C 139.58,85.089 134.766,76.676 124.697,76.676 C 114.638,76.676 105.332,83.595 105.332,100.812 C 105.332,119.142 115.391,123.888 124.976,123.888 C 128.086,123.888 138.472,122.677 141.397,109.191 L 125.635,109.191 L 125.635,97.803 L 125.635,97.803 z "
   style="fill-rule:evenodd"
   id="path16" />
		<polygon
   points="209.854,66.738 223.008,66.738 223.008,134.15 208.916,134.15 181.26,86.084 181.069,86.084 181.069,134.15 167.92,134.15 167.92,66.738 182.764,66.738 209.668,113.682 209.854,113.682 209.854,66.738 "
   style="fill-rule:evenodd"
   id="polygon18" />
		<path
   d="M 263.398,81.953 L 263.593,81.953 L 271.977,108.633 L 254.731,108.633 L 263.398,81.953 L 263.398,81.953 z M 250.962,120.264 L 275.933,120.264 L 280.269,134.151 L 295.63,134.151 L 271.787,66.739 L 255.483,66.739 L 231.362,134.151 L 246.25,134.151 L 250.962,120.264 L 250.962,120.264 z "
   style="fill-rule:evenodd"
   id="path20" />
		<polygon
   points="318.818,121.963 352.49,121.963 352.49,134.15 304.678,134.15 304.678,66.738 318.818,66.738 318.818,121.963 "
   style="fill-rule:evenodd"
   id="polygon22" />
		<polygon
   points="386.104,66.738 400.254,66.738 400.254,134.15 386.104,134.15 386.104,66.738 "
   style="fill-rule:evenodd"
   id="polygon24" />
		<path
   d="M 428.555,78.369 L 442.178,78.369 C 448.238,78.369 457.793,79.966 457.793,99.883 C 457.793,110.967 453.911,122.529 442.363,122.529 L 428.554,122.529 L 428.554,78.369 L 428.555,78.369 z M 414.717,134.15 L 444.072,134.15 C 466.45,134.15 472.192,113.31 472.192,98.847 C 472.192,86.074 467.485,66.738 444.638,66.738 L 414.716,66.738 L 414.716,134.15 L 414.717,134.15 z "
   style="fill-rule:evenodd"
   id="path26" />
		<path
   d="M 536.992,110.488 C 536.992,128.213 526.269,135.84 509.214,135.84 C 502.993,135.84 493.76,134.336 487.739,127.647 C 484.067,123.516 482.661,118.077 482.47,111.338 L 482.47,66.738 L 496.865,66.738 L 496.865,110.4 C 496.865,119.765 502.329,123.886 508.93,123.886 C 518.637,123.886 522.597,119.198 522.597,111.054 L 522.597,66.738 L 536.992,66.738 L 536.992,110.488 L 536.992,110.488 z "
   style="fill-rule:evenodd"
   id="path28" />
		<polygon
   points="592.271,66.738 605.42,66.738 605.42,134.15 591.328,134.15 563.672,86.084 563.481,86.084 563.481,134.15 550.332,134.15 550.332,66.738 565.186,66.738 592.085,113.682 592.271,113.682 592.271,66.738 "
   style="fill-rule:evenodd"
   id="polygon30" />
		<path
   d="M 645.815,81.953 L 646.005,81.953 L 654.389,108.633 L 637.143,108.633 L 645.815,81.953 L 645.815,81.953 z M 633.374,120.264 L 658.35,120.264 L 662.686,134.151 L 678.047,134.151 L 654.199,66.739 L 637.9,66.739 L 613.774,134.151 L 628.667,134.151 L 633.374,120.264 L 633.374,120.264 z "
   style="fill-rule:evenodd"
   id="path32" />
	</g>
</svg>