<svg xmlns="http://www.w3.org/2000/svg" viewBox="0 0 140 140" height="140" width="140">
  
<g transform="matrix(5.833333333333333,0,0,5.833333333333333,0,0)"><g>
    <path d="M13,20.57A1.25,1.25,0,0,0,13.6,23a10.47,10.47,0,0,0,7.66-8.21.25.25,0,0,1,.22-.21l1.69-.15a.49.49,0,0,0,.42-.31.51.51,0,0,0-.09-.52L20.3,10a.51.51,0,0,0-.42-.16.48.48,0,0,0-.38.23L17,14.18a.5.5,0,0,0,.42.76l.89-.08a.25.25,0,0,1,.26.32A7.92,7.92,0,0,1,13,20.57Z" style="fill: #00b2bb"></path>
    <path d="M8.23,2.75A.24.24,0,0,1,8,2.64L7.08,1.2A.51.51,0,0,0,6.61,1a.5.5,0,0,0-.42.32L4.4,5.71a.52.52,0,0,0,0,.44.47.47,0,0,0,.38.24l4.8.48a.51.51,0,0,0,.43-.76l-.46-.76a.24.24,0,0,1,0-.23A.22.22,0,0,1,9.77,5a7.89,7.89,0,0,1,7.3,2.67,1.24,1.24,0,0,0,1,.45,1.27,1.27,0,0,0,.81-.3A1.25,1.25,0,0,0,19,6,10.44,10.44,0,0,0,8.23,2.75Z" style="fill: #00b2bb"></path>
    <path d="M2.56,8.75A1.24,1.24,0,0,0,1,9.51a10.5,10.5,0,0,0,2.59,11,.26.26,0,0,1,0,.29l-.8,1.47a.5.5,0,0,0,.44.74S3,23,8,22.27A.53.53,0,0,0,8.4,22a.51.51,0,0,0,0-.45l-2-4.34A.5.5,0,0,0,6,16.93a.48.48,0,0,0-.45.26L5.1,18a.26.26,0,0,1-.19.13A.25.25,0,0,1,4.69,18a8,8,0,0,1-1.37-7.67A1.24,1.24,0,0,0,2.56,8.75Z" style="fill: #00b2bb"></path>
  </g></g></svg>