<?xml version="1.0" encoding="UTF-8"?>
<svg xmlns="http://www.w3.org/2000/svg" viewBox="0 0 140 140"><path d="M45.5 77.52a1.75 1.75 0 0 1 0 2.46l-5.01 5.25a9.06 9.06 0 0 0-1.337 10.897 9.263 9.263 0 0 0 10.29 4.498l7.14-1.587a1.92 1.92 0 0 1 2.27 1.255l2.146 6.906a9.432 9.432 0 0 0 17.967 0l2.147-6.9a1.925 1.925 0 0 1 2.274-1.255l7.158 1.616a9.257 9.257 0 0 0 10.29-4.497 9.06 9.06 0 0 0-1.336-10.897l-5.01-5.25a1.75 1.75 0 0 1 0-2.462l5.01-5.25a9.06 9.06 0 0 0 1.336-10.897 9.263 9.263 0 0 0-10.29-4.497l-7.163 1.616a1.925 1.925 0 0 1-2.27-1.254l-2.129-6.965a9.432 9.432 0 0 0-17.966 0l-2.147 6.9a1.907 1.907 0 0 1-2.275 1.255l-7.157-1.616a9.246 9.246 0 0 0-10.29 4.497 9.06 9.06 0 0 0 1.335 10.897zM70 67.602A11.16 11.16 0 1 1 58.584 78.75 11.287 11.287 0 0 1 70 67.59z" style="fill: #00b2bb;"/><path d="M128.333 5.833H11.667A11.667 11.667 0 0 0 0 17.5v105a11.667 11.667 0 0 0 11.667 11.667h116.666A11.667 11.667 0 0 0 140 122.5v-105a11.667 11.667 0 0 0-11.667-11.667zm-96.25 15.068a5.833 5.833 0 1 1 5.834 5.833 5.833 5.833 0 0 1-5.834-5.833zm20.417 0a5.833 5.833 0 1 1 5.833 5.833 5.833 5.833 0 0 1-5.833-5.833zm-35-5.833a5.833 5.833 0 1 1-5.833 5.833 5.833 5.833 0 0 1 5.833-5.833zM125.417 122.5H14.583a2.917 2.917 0 0 1-2.916-2.917v-78.75a2.917 2.917 0 0 1 2.916-2.916h110.834a2.917 2.917 0 0 1 2.916 2.916v78.75a2.917 2.917 0 0 1-2.916 2.917z" style="fill: #00b2bb;"/></svg>
