<?xml version="1.0" encoding="UTF-8"?>
<svg xmlns="http://www.w3.org/2000/svg" viewBox="0 0 140 140"><path d="M70 11.667a70.076 70.076 0 0 0-70 70V96.25a14.583 14.583 0 0 0 14.583 14.583h110.834A14.583 14.583 0 0 0 140 96.25V81.667a70.076 70.076 0 0 0-70-70zm55.417 77.291H113.75a4.375 4.375 0 0 1 0-8.75h11.667a4.375 4.375 0 0 1 0 8.75zm-16.065-22.26a4.38 4.38 0 0 1-2.194-8.166l10.104-5.834a4.377 4.377 0 1 1 4.375 7.584l-10.104 5.833a4.31 4.31 0 0 1-2.181.583zm-23.31 14.969a16.018 16.018 0 1 1-11.3-15.33l21.823-33.589a4.377 4.377 0 1 1 7.338 4.772L82.07 71.12a15.948 15.948 0 0 1 3.973 10.547zM47.787 49a4.416 4.416 0 0 1-5.98-1.575l-5.833-10.103a4.377 4.377 0 1 1 7.584-4.375L49.39 43.05A4.37 4.37 0 0 1 47.787 49zm-19.32 17.103L18.363 60.27a4.377 4.377 0 0 1 4.375-7.583l10.104 5.833a4.37 4.37 0 0 1 1.575 5.985 4.433 4.433 0 0 1-5.95 1.598zm2.158 18.48a4.375 4.375 0 0 1-4.375 4.375H14.583a4.375 4.375 0 0 1 0-8.75H26.25a4.375 4.375 0 0 1 4.375 4.375zM70 21.875a4.375 4.375 0 0 1 4.375 4.375v11.667a4.375 4.375 0 0 1-8.75 0V26.25A4.375 4.375 0 0 1 70 21.875z" style="fill: #00b2bb;"/><path d="M62.708 81.667a7.292 7.292 0 1 0 14.584 0 7.292 7.292 0 1 0-14.584 0z" style="fill: #00b2bb;"/></svg>
