<?xml version="1.0" encoding="UTF-8"?>
<svg width="1280px" height="384px" viewBox="0 0 1280 384" version="1.1" xmlns="http://www.w3.org/2000/svg" xmlns:xlink="http://www.w3.org/1999/xlink">
    <!-- Generator: Sketch 57.1 (83088) - https://sketch.com -->
    <title>securecodebox-logo</title>
    <desc>Created with Sketch.</desc>
    <g id="securecodebox-logo" stroke="none" stroke-width="1" fill="none" fill-rule="evenodd">
        <g id="logo_secureCodeBox_color" transform="translate(72.000000, 65.000000)" fill-rule="nonzero">
            <path d="M735,167.666667 C735,219.666667 704.559292,254 657.727434,254 C637.656637,254 620.930973,246.333333 609.557522,232 L609.557522,251.666667 L546,251.666667 L546,20 L609.223009,20 L609.223009,101.666667 C620.59646,87.6666667 636.653097,79.6666667 656.054867,79.6666667 C703.555752,79.6666667 735,114.666667 735,167.666667 Z M671.107965,166 C671.107965,143.666667 658.730973,128.333333 639.99823,128.333333 C621.934513,128.333333 609.223009,143.666667 609.223009,166 C609.223009,188.333333 621.6,203.666667 639.99823,203.666667 C658.730973,204 671.107965,188.666667 671.107965,166 Z" id="Shape" fill="#3296DC"></path>
            <polygon id="Shape" fill="#3296DC" points="1012.66667 81 1036 125.086444 1062.33333 81 1131 81 1078 163.829077 1135 251 1062.66667 251 1036.33333 202.905697 1006.33333 251 937 251 993.666667 164.497053 940.333333 81.3339882 1012.66667 81.3339882"></polygon>
            <path d="M909.21311,88.6666667 L909.21311,63.6666667 C909.21311,28.3333333 879.777464,0 844.32089,0 C808.864316,0 779.42867,28.6666667 779.42867,63.6666667 L779.42867,93.6666667 C762.369375,110.666667 752,134.333333 752,160.333333 C752,212.666667 794.480989,255 846.996858,255 C899.512726,255 941.993716,212.666667 941.993716,160.333333 C942.328212,131.666667 929.282869,106 909.21311,88.6666667 Z M865.059641,197.666667 L826.592603,197.666667 L836.961979,162.666667 C829.268571,159.333333 823.916635,151.666667 823.916635,142.666667 C823.916635,130.666667 833.951515,120.666667 845.99337,120.666667 C858.035225,120.666667 868.070105,130.666667 868.070105,142.666667 C868.070105,151.666667 862.718169,159.333333 855.024761,162.666667 L865.059641,197.666667 Z M887.136375,78.6666667 C878.773976,71.3333333 865.059641,65.6666667 847.331354,65.6666667 C829.603067,65.6666667 813.212764,69 799.163933,77.3333333 L799.163933,74 C799.163933,40.6666667 812.878268,22 845.99337,22 C879.108472,22 887.470871,43.3333333 887.470871,77 L887.470871,78.6666667 L887.136375,78.6666667 Z" id="Shape" fill="#A9218E"></path>
            <g id="Group" transform="translate(0.000000, 21.000000)" fill="#3296DC">
                <path d="M34.6958854,15.1758589 C27.3565445,15.1758589 22.018842,17.5144136 22.018842,23.8619192 C22.018842,39.8977228 68.3901324,31.2116625 68.3901324,62.9491905 C68.3901324,80.9894695 52.3770249,89.0073713 35.0294918,89.0073713 C22.3524484,89.0073713 8.67458577,84.6643412 0.000819217251,76.9805186 L6.67294733,63.617349 C14.3458947,70.2989338 26.3557253,74.3078847 36.030311,74.3078847 C44.0368648,74.3078847 50.3753865,71.6352508 50.3753865,64.9536659 C50.3753865,46.9133869 4.33770249,56.9357641 4.6713089,25.5323154 C4.6713089,7.82611557 20.0172036,0.14229301 36.6975238,0.14229301 C47.7065352,0.14229301 59.3827594,3.48308543 67.0557068,9.16243254 L60.0499723,23.1937607 C52.0434185,18.1825721 42.3688327,15.1758589 34.6958854,15.1758589 Z" id="Shape"></path>
                <path d="M163.801564,51.5904962 L98.0811025,51.5904962 C101.08356,64.9536659 111.425359,73.305647 125.103221,73.305647 C134.777807,73.305647 143.451574,69.6307753 149.790095,63.2832697 L159.798288,73.9738054 C151.124521,83.3280242 138.781084,88.6732921 123.768796,88.6732921 C96.7466769,89.0073713 79.0655374,70.9670923 79.0655374,44.5748322 C79.0655374,18.1825721 97.4138897,0.14229301 123.101583,0.14229301 C153.793372,0.14229301 166.136809,20.1870475 163.801564,51.5904962 Z M147.454851,37.8932473 C146.787638,23.8619192 137.446658,15.1758589 123.101583,15.1758589 C109.42372,15.1758589 99.4155281,23.8619192 97.4138897,37.8932473 L147.454851,37.8932473 Z" id="Shape"></path>
                <path d="M220.181047,16.8462551 C205.168759,16.8462551 194.159747,28.2049493 194.159747,44.9089114 C194.159747,61.6128735 204.835152,72.9715677 220.181047,72.9715677 C231.190058,72.9715677 239.863825,69.2966961 245.86874,62.6151112 L256.210539,72.9715677 C248.203985,83.3280242 235.860548,89.3414506 219.180228,89.3414506 C193.158928,89.3414506 175.144182,71.3011715 175.144182,45.2429907 C175.144182,18.8507306 193.158928,0.810451494 219.180228,0.810451494 C234.859729,0.810451494 247.203166,5.82164012 255.20972,15.1758589 L244.867921,27.2027116 C238.863006,20.5211268 230.522846,16.5121759 220.181047,16.8462551 Z" id="Shape"></path>
                <path d="M355.291641,0.810451494 L355.291641,88.3392128 L336.276076,88.3392128 L336.276076,71.3011715 C330.271161,83.3280242 319.26215,89.0073713 305.25068,89.0073713 C285.234296,89.0073713 273.224466,76.3123601 273.224466,55.2653679 L273.224466,0.810451494 L292.240031,0.810451494 L292.240031,49.9201 C292.240031,62.9491905 299.912978,70.9670923 312.590021,70.9670923 C327.60231,70.633013 336.609683,58.9402396 336.609683,43.5725944 L336.609683,0.810451494 L355.291641,0.810451494 Z" id="Shape"></path>
                <path d="M432.354721,0.14229301 L432.354721,18.1825721 C414.673582,17.1803343 403.66457,27.5367908 402.330145,42.5703567 L402.330145,88.3392128 L383.314579,88.3392128 L383.314579,0.810451494 L402.330145,0.810451494 L402.330145,18.1825721 C408.001453,6.4897986 418.343252,0.14229301 432.354721,0.14229301 Z" id="Shape"></path>
                <path d="M524.430089,51.5904962 L458.376021,51.5904962 C461.378478,64.9536659 471.720277,73.305647 485.39814,73.305647 C495.072725,73.305647 503.746492,69.6307753 510.085014,63.2832697 L520.093206,73.9738054 C511.419439,83.3280242 499.076002,88.6732921 484.063714,88.6732921 C457.041595,88.6732921 439.360456,70.633013 439.360456,44.5748322 C439.360456,18.1825721 457.708808,0.14229301 483.396501,0.14229301 C514.421897,0.14229301 526.765334,20.1870475 524.430089,51.5904962 Z M508.083375,37.8932473 C507.416162,23.8619192 498.075183,15.1758589 483.730108,15.1758589 C470.052245,15.1758589 460.044053,23.8619192 458.042414,37.8932473 L508.083375,37.8932473 Z" id="Shape"></path>
                <path d="M180.815491,161.502567 C165.803203,161.502567 154.794191,172.861261 154.794191,189.565223 C154.794191,206.269185 165.469596,217.627879 180.815491,217.627879 C191.824503,217.627879 200.498269,213.953008 206.503184,207.271423 L216.844983,217.627879 C208.838429,227.984336 196.494992,233.997762 179.814672,233.997762 C153.793372,233.997762 135.778626,215.957483 135.778626,189.899302 C135.778626,163.507042 153.793372,145.466763 179.814672,145.466763 C195.494173,145.466763 207.83761,150.477952 215.844164,159.832171 L205.835972,171.524944 C199.831056,165.177438 191.490896,161.502567 180.815491,161.502567 Z" id="Shape"></path>
                <path d="M316.259692,189.231144 C316.259692,215.623404 297.577733,233.663683 270.889221,233.663683 C243.867102,233.663683 225.185143,215.623404 225.185143,189.231144 C225.185143,162.838884 243.867102,144.798605 270.889221,144.798605 C297.577733,145.132684 316.259692,162.838884 316.259692,189.231144 Z M244.200708,189.565223 C244.200708,206.603264 255.20972,217.961959 270.889221,217.961959 C286.568722,217.961959 297.577733,206.603264 297.577733,189.565223 C297.577733,172.861261 286.568722,161.168488 270.889221,161.168488 C255.20972,161.168488 244.200708,172.861261 244.200708,189.565223 Z" id="Shape"></path>
                <path d="M419.010465,111.056601 L419.010465,232.995525 L399.9949,232.995525 L399.9949,217.961959 C393.656378,227.984336 383.314579,233.663683 369.30311,233.663683 C344.28263,233.663683 327.60231,215.289325 327.60231,188.897065 C327.60231,162.504805 344.616236,144.798605 368.969504,144.798605 C382.980973,144.798605 393.656378,150.477952 399.9949,160.834408 L399.9949,111.056601 L419.010465,111.056601 Z M400.328506,189.565223 C400.328506,172.527182 389.319495,160.834408 373.639994,160.834408 C357.960493,160.834408 346.951481,172.861261 346.617875,189.565223 C346.617875,206.269185 357.626886,217.961959 373.639994,217.961959 C389.319495,217.961959 400.328506,206.269185 400.328506,189.565223 Z" id="Shape"></path>
                <path d="M524.430089,196.580887 L458.376021,196.580887 C461.378478,209.944057 471.720277,218.296038 485.39814,218.296038 C495.072725,218.296038 503.746492,214.621166 510.085014,208.273661 L520.093206,218.964196 C511.419439,228.318415 499.076002,233.663683 484.063714,233.663683 C457.041595,233.663683 439.360456,215.623404 439.360456,189.565223 C439.360456,163.172963 457.708808,145.132684 483.396501,145.132684 C514.421897,145.132684 526.765334,165.177438 524.430089,196.580887 Z M508.083375,182.883638 C507.416162,168.85231 498.075183,160.16625 483.730108,160.16625 C470.052245,160.16625 460.044053,168.85231 458.042414,182.883638 L508.083375,182.883638 Z" id="Shape"></path>
            </g>
        </g>
    </g>
</svg>